#N canvas 740 23 933 982 10;
#X obj 694 137 bng 15 250 50 0 clock empty clock 17 7 0 10 -262144
-1 -1;
#X obj 732 161 + 1;
#X obj 694 161 f 0;
#X floatatom 15 135 5 0 0 0 - - -, f 5;
#X floatatom 66 135 5 0 0 0 - - -, f 5;
#X obj 694 111 metro 250;
#X msg 773 111 0;
#X obj 15 17 hradio 15 0 0 4 sequence_id sequence_id-r sequence_id
0 -8 0 10 -262144 -1 -1 0;
#X floatatom 15 37 5 0 0 0 - - -, f 5;
#N canvas 59 440 663 565 select_sequence 0;
#X obj 308 474 outlet;
#X obj 259 13 inlet;
#X obj 259 35 t f b;
#X obj 259 236 noteout 3;
#X obj 259 197 pack f f;
#X msg 304 165 127;
#X obj 261 270 notein 3;
#X obj 261 344 t f f;
#X obj 308 422 f;
#X floatatom 308 444 5 0 0 0 - - -, f 5;
#X obj 344 175 f;
#X obj 344 197 pack f f;
#X msg 389 175 0;
#X obj 344 139 t b b;
#X obj 259 98 t f b;
#X obj 261 297 stripnote;
#X obj 259 143 + 33;
#X obj 261 322 - 33;
#X obj 211 374 sel 0 1 2 3;
#X connect 1 0 2 0;
#X connect 2 0 14 0;
#X connect 2 1 13 0;
#X connect 4 0 3 0;
#X connect 5 0 4 1;
#X connect 6 0 15 0;
#X connect 6 1 15 1;
#X connect 7 0 18 0;
#X connect 7 1 8 1;
#X connect 8 0 9 0;
#X connect 9 0 0 0;
#X connect 10 0 11 0;
#X connect 11 0 3 0;
#X connect 12 0 11 1;
#X connect 13 0 10 0;
#X connect 13 1 12 0;
#X connect 14 0 16 0;
#X connect 14 1 5 0;
#X connect 15 0 17 0;
#X connect 16 0 4 0;
#X connect 16 0 10 1;
#X connect 17 0 7 0;
#X connect 18 0 8 0;
#X connect 18 1 8 0;
#X connect 18 2 8 0;
#X connect 18 3 8 0;
#X restore 50 37 pd select_sequence;
#X obj 15 113 notein 17;
#N canvas 233 101 1036 470 buttons 0;
#X obj 15 12 notein 3;
#X obj 15 34 pack f f;
#X obj 101 407 noteout 3;
#X obj 533 78 sel 0 64;
#X obj 555 120 t b b;
#X obj 118 78 sel 0 64;
#X obj 140 142 sel 0 1;
#X obj 15 78 sel 0 64;
#X obj 37 142 sel 0 1;
#X obj 37 99 s play-pause-r;
#X obj 37 120 r play-pause;
#X obj 222 78 sel 0 64;
#X obj 244 120 t b b;
#X obj 244 167 s stop-r;
#X obj 140 120 r record;
#X obj 140 99 s record-r;
#X obj 15 56 route 37 38 39 40 41 42 43 44 45, f 156;
#X obj 450 288 tgl 25 0 play-pause play-pause-r play/pause 17 7 0 10
-262144 -1 -1 1 1;
#X obj 534 298 tgl 15 0 record record-r record 17 7 0 10 -262144 -1
-1 0 1;
#X obj 593 298 bng 15 250 50 0 stop stop-r stop 17 7 0 10 -262144 -1
-1;
#X obj 699 298 bng 15 250 50 0 pop pop-r pop 17 7 0 10 -262144 -1 -1
;
#X obj 740 298 bng 15 250 50 0 rest rest-r rest 17 7 0 10 -262144 -1
-1;
#X msg 37 167 37 0;
#X msg 79 167 37 127;
#X msg 140 167 38 0;
#X msg 182 167 38 127;
#X msg 222 99 39 0;
#X msg 271 142 39 127;
#X obj 429 78 sel 0 64;
#X obj 450 120 t b b;
#X msg 429 99 41 0;
#X msg 477 142 41 127;
#X obj 450 167 s pop-r;
#X msg 533 99 42 0;
#X msg 582 142 42 127;
#X obj 555 167 s rest-r;
#X obj 643 298 bng 15 250 50 0 append append-r append 17 7 0 10 -262144
-1 -1;
#X obj 326 78 sel 0 64;
#X obj 347 120 t b b;
#X msg 326 99 40 0;
#X msg 374 142 40 127;
#X obj 347 167 s append-r;
#X obj 785 298 tgl 15 0 gates gates-r gates 17 7 0 10 -262144 -1 -1
0 1;
#X obj 835 298 bng 15 250 50 0 reset reset-r reset 17 7 0 10 -262144
-1 -1;
#X obj 637 78 sel 0 64;
#X obj 659 142 sel 0 1;
#X obj 659 99 s gates-r;
#X obj 659 120 r gates;
#X msg 659 167 43 0;
#X obj 740 80 sel 0 64;
#X obj 762 122 t b b;
#X msg 740 101 44 0;
#X msg 789 144 44 127;
#X obj 762 169 s reset-r;
#X msg 701 167 43 127;
#X obj 888 298 tgl 15 0 transpose transpose-r transpose 17 7 0 10 -262144
-1 -1 0 1;
#X obj 845 79 sel 0 64;
#X obj 867 143 sel 0 1;
#X msg 867 168 45 0;
#X msg 909 168 45 127;
#X obj 867 100 s transpose-r;
#X obj 867 121 r transpose;
#X connect 0 0 1 0;
#X connect 0 1 1 1;
#X connect 1 0 16 0;
#X connect 3 0 33 0;
#X connect 3 1 4 0;
#X connect 4 0 35 0;
#X connect 4 1 34 0;
#X connect 5 1 15 0;
#X connect 6 0 24 0;
#X connect 6 1 25 0;
#X connect 7 1 9 0;
#X connect 8 0 22 0;
#X connect 8 1 23 0;
#X connect 10 0 8 0;
#X connect 11 0 26 0;
#X connect 11 1 12 0;
#X connect 12 0 13 0;
#X connect 12 1 27 0;
#X connect 14 0 6 0;
#X connect 16 0 7 0;
#X connect 16 1 5 0;
#X connect 16 2 11 0;
#X connect 16 3 37 0;
#X connect 16 4 28 0;
#X connect 16 5 3 0;
#X connect 16 6 44 0;
#X connect 16 7 49 0;
#X connect 16 8 56 0;
#X connect 22 0 2 0;
#X connect 23 0 2 0;
#X connect 24 0 2 0;
#X connect 25 0 2 0;
#X connect 26 0 2 0;
#X connect 27 0 2 0;
#X connect 28 0 30 0;
#X connect 28 1 29 0;
#X connect 29 0 32 0;
#X connect 29 1 31 0;
#X connect 30 0 2 0;
#X connect 31 0 2 0;
#X connect 33 0 2 0;
#X connect 34 0 2 0;
#X connect 37 0 39 0;
#X connect 37 1 38 0;
#X connect 38 0 41 0;
#X connect 38 1 40 0;
#X connect 39 0 2 0;
#X connect 40 0 2 0;
#X connect 44 1 46 0;
#X connect 45 0 48 0;
#X connect 45 1 54 0;
#X connect 47 0 45 0;
#X connect 48 0 2 0;
#X connect 49 0 51 0;
#X connect 49 1 50 0;
#X connect 50 0 53 0;
#X connect 50 1 52 0;
#X connect 51 0 2 0;
#X connect 52 0 2 0;
#X connect 54 0 2 0;
#X connect 56 1 60 0;
#X connect 57 0 58 0;
#X connect 57 1 59 0;
#X connect 58 0 2 0;
#X connect 59 0 2 0;
#X connect 61 0 57 0;
#X coords 0 -1 1 1 520 40 1 445 277;
#X restore 15 63 pd buttons;
#X obj 16 668 makenote 127 200;
#X obj 16 690 noteout 3;
#X obj 16 625 + 1;
#X obj 16 647 to_horizontal;
#N canvas 324 621 838 341 notes_out 0;
#X obj 18 18 inlet notes;
#X obj 18 201 noteout 17;
#X obj 89 201 noteout 18;
#X obj 159 201 noteout 19;
#X obj 232 201 noteout 20;
#X obj 306 201 noteout 21;
#X obj 379 201 noteout 22;
#X obj 449 201 noteout 23;
#X obj 522 201 noteout 24;
#X obj 18 62 route 0 1 2 3 4 5 6 7;
#X connect 0 0 9 0;
#X connect 9 0 1 0;
#X connect 9 1 2 0;
#X connect 9 2 3 0;
#X connect 9 3 4 0;
#X connect 9 4 5 0;
#X connect 9 5 6 0;
#X connect 9 6 7 0;
#X connect 9 7 8 0;
#X restore 77 554 pd notes_out;
#X obj 46 411 r clock;
#X obj 15 156 pack f f;
#X obj 15 298 s notes_in;
#X obj 129 477 r notes_in;
#X obj 173 729 ctlout;
#X msg 205 709 3;
#N canvas 46 72 560 672 tables_old 0;
#N canvas 0 22 450 300 (subpatch) 0;
#X array notes1 32 float 3 black black;
#A 0 57 50 57 53 50 59 53 52 60 53 62 53 62 57 64 59 53 64 59 64 53
65 53 0 0 0 0 0 0 50 55 48;
#X coords 0 127 32 0 200 140 1;
#X restore 347 362 graph;
#N canvas 0 22 450 300 (subpatch) 0;
#X array notes2 32 float 3 black black;
#A 0 55 59 55 55 52 56 55 0 59 59 60 60 60 59 62 57 0 62 53 62 62 64
55 55 0 0 0 0 0 53 57 47;
#X coords 0 127 32 0 200 140 1;
#X restore 347 516 graph;
#N canvas 0 22 450 300 (subpatch) 0;
#X array vels1 32 float 3 black black;
#A 0 127 93 74 78 84 108 72 87 0 93 84 102 108 68 93 72 93 108 74 102
108 102 108 0 0 0 0 0 0 102 115 7;
#X coords 0 127 32 0 200 140 1;
#X restore 347 207 graph;
#X obj 49 429 tabwrite notes1;
#X obj 49 177 pack f f f;
#X obj 49 199 route 1 2;
#X obj 64 227 unpack f f;
#X obj 121 258 sel 0;
#X obj 133 361 tabwrite vels1;
#X obj 74 451 unpack f f;
#X obj 131 516 sel 0;
#X obj 59 580 tabwrite notes2;
#X obj 49 409 f;
#X obj 59 516 f;
#X obj 133 340 f;
#X obj 146 559 r step_index;
#X obj 136 409 r step_index;
#X obj 214 340 r step_index;
#X obj 59 472 r write_step;
#X obj 49 361 r write_step;
#X obj 133 299 r write_step;
#X obj 59 106 r clear_poly;
#X msg 59 128 clear;
#X obj 81 494 r clear_buffer;
#X obj 74 382 r clear_buffer;
#X obj 155 320 r clear_buffer;
#X obj 131 538 s noteoff;
#X obj 121 278 s noteoff;
#X obj 225 361 t f b;
#X obj 225 469 pack f f f;
#X msg 282 448 3;
#X obj 253 383 r step_index;
#X obj 253 405 + 1;
#X obj 253 427 to_horizontal;
#X obj 49 155 poly 2;
#X obj 222 502 ctlout;
#X connect 4 0 5 0;
#X connect 5 0 6 0;
#X connect 5 1 9 0;
#X connect 6 0 12 1;
#X connect 6 1 7 0;
#X connect 7 0 27 0;
#X connect 7 1 14 1;
#X connect 9 0 13 1;
#X connect 9 1 10 0;
#X connect 10 0 26 0;
#X connect 12 0 3 0;
#X connect 13 0 11 0;
#X connect 14 0 8 0;
#X connect 14 0 28 0;
#X connect 15 0 11 1;
#X connect 16 0 3 1;
#X connect 17 0 8 1;
#X connect 18 0 13 0;
#X connect 19 0 12 0;
#X connect 20 0 14 0;
#X connect 21 0 22 0;
#X connect 22 0 34 0;
#X connect 23 0 13 1;
#X connect 24 0 12 1;
#X connect 25 0 14 1;
#X connect 28 0 29 0;
#X connect 28 1 30 0;
#X connect 29 0 35 0;
#X connect 30 0 29 2;
#X connect 31 0 32 0;
#X connect 32 0 33 0;
#X connect 33 0 29 1;
#X connect 34 0 4 0;
#X connect 34 1 4 1;
#X connect 34 2 4 2;
#X restore 836 12 pd tables_old;
#X obj 773 89 r stop;
#X obj 242 610 s play-pause-r;
#X obj 307 580 s record-r;
#X obj 694 75 tgl 15 0 empty empty empty 17 7 0 10 -262144 -1 -1 1
1;
#X obj 46 523 clone sequence 4, f 55;
#X msg 46 432 all bng;
#X obj 42 228 r sequence_id;
#X obj 15 255 f;
#X obj 15 277 pack f f f;
#X obj 15 178 t b l;
#X obj 42 205 unpack f f;
#X obj 55 582 r sequence_id;
#X obj 16 604 route 0;
#X msg 13 352 vis 0 1;
#X obj 242 588 route 0;
#X obj 307 558 route 0;
#X obj 690 28 loadbang;
#X obj 173 589 route 0;
#X obj 235 684 loadbang;
#X obj 218 662 to_horizontal;
#X obj 173 611 unpack f f;
#X obj 173 684 pack f f;
#X obj 218 641 + 1;
#X obj 705 655 ctlin;
#X floatatom 705 677 5 0 0 0 - - -, f 5;
#X floatatom 741 677 5 0 0 0 - - -, f 5;
#X floatatom 783 677 5 0 0 0 - - -, f 5;
#X obj 741 747 swap;
#X obj 705 772 swap;
#X obj 705 793 pack f f f;
#X obj 705 815 route 3;
#X obj 741 702 from_horizontal;
#X obj 741 722 - 1;
#X obj 705 957 s velocities_in;
#X obj 731 882 r sequence_id;
#X obj 705 909 f;
#X obj 705 931 pack f f f;
#X obj 705 837 t b l;
#X obj 731 860 unpack f f;
#X obj 212 480 r velocities_in;
#X obj 223 278 r sequence_id;
#X obj 223 391 list prepend;
#X msg 223 321 select;
#X obj 562 69 r play-pause;
#X msg 562 90 play \$1;
#X obj 562 119 r record;
#X msg 562 140 record \$1;
#X obj 562 169 r stop;
#X msg 562 190 stop;
#X obj 562 219 r append;
#X obj 562 266 r pop;
#X obj 562 309 r rest;
#X msg 562 240 append;
#X msg 562 287 pop;
#X msg 562 330 rest;
#X obj 562 358 r gates;
#X msg 562 379 gates \$1;
#X obj 562 409 r reset;
#X msg 562 430 reset;
#X obj 373 558 route 0;
#X obj 373 580 s gates-r;
#X obj 223 299 t b f f;
#X obj 622 523 hsl 128 15 250 10000 0 0 empty empty gate\ time -2 -8
0 10 -262144 -1 -1 0 1;
#X obj 603 623 hsl 128 15 1 100 1 0 empty empty gate\ scale -2 -8 0
10 -262144 -1 -1 3800 1;
#X floatatom 603 643 5 0 0 0 - - -, f 5;
#X floatatom 622 543 5 0 0 0 - - -, f 5;
#X text 458 125 comment;
#X obj 562 458 r transpose;
#X msg 562 480 TODO;
#X obj 519 569 list prepend;
#X obj 530 678 list prepend;
#X connect 0 0 2 0;
#X connect 1 0 2 1;
#X connect 2 0 1 0;
#X connect 3 0 18 0;
#X connect 4 0 18 1;
#X connect 5 0 0 0;
#X connect 6 0 2 1;
#X connect 7 0 8 0;
#X connect 8 0 9 0;
#X connect 9 0 7 0;
#X connect 10 0 3 0;
#X connect 10 1 4 0;
#X connect 12 0 13 0;
#X connect 12 1 13 1;
#X connect 14 0 15 0;
#X connect 15 0 12 0;
#X connect 17 0 29 0;
#X connect 18 0 33 0;
#X connect 20 0 28 1;
#X connect 22 0 21 2;
#X connect 24 0 6 0;
#X connect 27 0 5 0;
#X connect 28 0 36 0;
#X connect 28 1 16 0;
#X connect 28 2 41 0;
#X connect 28 3 38 0;
#X connect 28 4 39 0;
#X connect 28 5 83 0;
#X connect 29 0 28 0;
#X connect 30 0 31 1;
#X connect 31 0 32 0;
#X connect 32 0 19 0;
#X connect 33 0 31 0;
#X connect 33 1 34 0;
#X connect 34 0 32 1;
#X connect 34 1 32 2;
#X connect 35 0 36 1;
#X connect 36 0 14 0;
#X connect 37 0 28 0;
#X connect 38 0 25 0;
#X connect 39 0 26 0;
#X connect 40 0 27 0;
#X connect 41 0 44 0;
#X connect 42 0 22 0;
#X connect 43 0 45 1;
#X connect 44 0 45 0;
#X connect 44 1 46 0;
#X connect 45 0 21 0;
#X connect 46 0 43 0;
#X connect 47 0 48 0;
#X connect 47 1 49 0;
#X connect 47 2 50 0;
#X connect 48 0 52 0;
#X connect 49 0 55 0;
#X connect 50 0 51 1;
#X connect 51 0 52 1;
#X connect 51 1 53 2;
#X connect 52 0 53 0;
#X connect 52 1 53 1;
#X connect 53 0 54 0;
#X connect 54 0 61 0;
#X connect 55 0 56 0;
#X connect 56 0 51 0;
#X connect 58 0 59 1;
#X connect 59 0 60 0;
#X connect 60 0 57 0;
#X connect 61 0 59 0;
#X connect 61 1 62 0;
#X connect 62 0 60 1;
#X connect 62 1 60 2;
#X connect 63 0 28 2;
#X connect 64 0 85 0;
#X connect 65 0 28 0;
#X connect 66 0 65 0;
#X connect 67 0 68 0;
#X connect 68 0 65 0;
#X connect 69 0 70 0;
#X connect 70 0 65 0;
#X connect 71 0 72 0;
#X connect 72 0 65 0;
#X connect 73 0 76 0;
#X connect 74 0 77 0;
#X connect 75 0 78 0;
#X connect 76 0 65 0;
#X connect 77 0 65 0;
#X connect 78 0 65 0;
#X connect 79 0 80 0;
#X connect 80 0 65 0;
#X connect 81 0 82 0;
#X connect 82 0 65 0;
#X connect 83 0 84 0;
#X connect 85 0 66 0;
#X connect 85 1 65 1;
#X connect 85 2 38 1;
#X connect 85 2 39 1;
#X connect 85 2 83 1;
#X connect 85 2 41 1;
#X connect 85 2 93 1;
#X connect 85 2 94 1;
#X connect 86 0 89 0;
#X connect 87 0 88 0;
#X connect 88 0 94 0;
#X connect 89 0 93 0;
#X connect 91 0 92 0;
#X connect 93 0 28 3;
#X connect 94 0 28 4;
