#N canvas 457 433 450 300 10;
#X obj 199 30 r \$1;
#X obj 199 90 pack f f;
#X obj 199 70 f \$2;
#X obj 199 110 outlet;
#X obj 199 50 t b f;
#X connect 0 0 4 0;
#X connect 1 0 3 0;
#X connect 2 0 1 0;
#X connect 4 0 2 0;
#X connect 4 1 1 1;
