#N canvas 57 80 1520 849 10;
#X obj 34 14 inlet;
#X obj 34 36 sel 1 2 3 4 5 6 7 8 9 10 11 12 13 14 15 16 17 18 19 20
21 22 23 24 25 26 27 28 29 30 31 32, f 154;
#X msg 33 81 1;
#X msg 83 81 5;
#X msg 133 81 9;
#X msg 183 81 13;
#X msg 264 134 2;
#X msg 493 195 3;
#X msg 723 259 4;
#X msg 314 134 6;
#X msg 543 195 7;
#X msg 773 259 8;
#X msg 364 134 10;
#X msg 593 195 11;
#X msg 823 259 12;
#X msg 414 134 14;
#X msg 643 195 15;
#X msg 873 259 16;
#X msg 235 81 17;
#X msg 466 134 18;
#X msg 695 195 19;
#X msg 925 259 20;
#X msg 289 81 21;
#X msg 520 134 22;
#X msg 749 195 23;
#X msg 979 259 24;
#X msg 343 81 25;
#X msg 574 134 26;
#X msg 803 195 27;
#X msg 1033 259 28;
#X msg 398 81 29;
#X msg 629 134 30;
#X msg 858 195 31;
#X msg 1088 259 32;
#X obj 97 461 outlet;
#X connect 0 0 1 0;
#X connect 1 0 2 0;
#X connect 1 1 3 0;
#X connect 1 2 4 0;
#X connect 1 3 5 0;
#X connect 1 4 18 0;
#X connect 1 5 22 0;
#X connect 1 6 26 0;
#X connect 1 7 30 0;
#X connect 1 8 6 0;
#X connect 1 9 9 0;
#X connect 1 10 12 0;
#X connect 1 11 15 0;
#X connect 1 12 19 0;
#X connect 1 13 23 0;
#X connect 1 14 27 0;
#X connect 1 15 31 0;
#X connect 1 16 7 0;
#X connect 1 17 10 0;
#X connect 1 18 13 0;
#X connect 1 19 16 0;
#X connect 1 20 20 0;
#X connect 1 21 24 0;
#X connect 1 22 28 0;
#X connect 1 23 32 0;
#X connect 1 24 8 0;
#X connect 1 25 11 0;
#X connect 1 26 14 0;
#X connect 1 27 17 0;
#X connect 1 28 21 0;
#X connect 1 29 25 0;
#X connect 1 30 29 0;
#X connect 1 31 33 0;
#X connect 2 0 34 0;
#X connect 3 0 34 0;
#X connect 4 0 34 0;
#X connect 5 0 34 0;
#X connect 6 0 34 0;
#X connect 7 0 34 0;
#X connect 8 0 34 0;
#X connect 9 0 34 0;
#X connect 10 0 34 0;
#X connect 11 0 34 0;
#X connect 12 0 34 0;
#X connect 13 0 34 0;
#X connect 14 0 34 0;
#X connect 15 0 34 0;
#X connect 16 0 34 0;
#X connect 17 0 34 0;
#X connect 18 0 34 0;
#X connect 19 0 34 0;
#X connect 20 0 34 0;
#X connect 21 0 34 0;
#X connect 22 0 34 0;
#X connect 23 0 34 0;
#X connect 24 0 34 0;
#X connect 25 0 34 0;
#X connect 26 0 34 0;
#X connect 27 0 34 0;
#X connect 28 0 34 0;
#X connect 29 0 34 0;
#X connect 30 0 34 0;
#X connect 31 0 34 0;
#X connect 32 0 34 0;
#X connect 33 0 34 0;
