#N canvas 704 265 382 493 10;
#X obj 78 341 / 1;
#X text 155 21 \$1 - MIDI ctrl voice number;
#X obj 98 175 pack f \$2;
#X msg 98 196 param change \$2 \$1;
#X obj 98 217 s camomile;
#X msg 98 151 1;
#X msg 59 151 0;
#X text 155 37 \$2 - Parameter voice number;
#X text 155 53 \$3 - Parameter name & GUI;
#X obj 30 216 loadbang;
#X obj 30 257 moses 1e-07;
#X obj 30 237 f \$4;
#X obj 59 41 stripnote;
#X obj 59 63 sel \$1;
#X obj 59 19 notein;
#X obj 108 293 f 0;
#X obj 108 315 == 0;
#X obj 59 85 t b b b;
#X obj 123 252 r \$3-s;
#X obj 78 365 s \$3-r;
#X obj 123 272 route float;
#X connect 0 0 19 0;
#X connect 2 0 3 0;
#X connect 3 0 4 0;
#X connect 5 0 2 0;
#X connect 6 0 2 0;
#X connect 9 0 11 0;
#X connect 10 1 0 1;
#X connect 11 0 10 0;
#X connect 12 0 13 0;
#X connect 13 0 17 0;
#X connect 14 0 12 0;
#X connect 14 1 12 1;
#X connect 15 0 16 0;
#X connect 16 0 0 0;
#X connect 17 0 6 0;
#X connect 17 1 15 0;
#X connect 17 2 5 0;
#X connect 18 0 20 0;
#X connect 20 0 15 1;
