#N canvas 840 23 840 982 10;
#X obj 50 20 hradio 15 0 0 2 \$0-play-s \$0-play-r empty 0 -8 0 10
-262144 -1 -1 0;
#X obj 120 20 tgl 15 0 \$0-rec-s \$0-rec-r empty 17 7 0 10 -262144
-1 -1 0 1;
#X text 109 35 record;
#X obj 174 20 tgl 15 0 \$0-append-s \$0-append-r empty 17 7 0 10 -166441
-33289 -33289 0 1;
#X text 164 35 append;
#X text 221 35 clear last;
#X text 439 35 vel/gate;
#X obj 447 20 hradio 15 0 0 2 \$0-gates-s \$0-gates-r empty 0 -8 0
10 -262144 -1 -1 0;
#X text 37 35 pause/play;
#X obj 18 57 hradio 15 0 0 32 \$0-step-s \$0-step-r empty 0 -8 0 10
-262144 -258049 -89601 0;
#X obj 15 670 bng 15 250 50 0 empty empty clock 17 7 0 10 -262144 -1
-1;
#X obj 15 474 r \$0-play-s;
#X obj 529 71 midi.note.link 1 1 \$0-play 0;
#X obj 529 91 midi.note.link 2 2 \$0-rec 0;
#X obj 529 111 midi.note.link 3 3 \$0-append 0;
#X obj 529 131 midi.note.link 4 4 \$0-pop 0;
#X obj 529 151 midi.note.link 5 5 \$0-rest 0;
#X obj 529 171 midi.note.link 6 6 \$0-reset 0;
#X obj 529 191 midi.note.link 7 7 \$0-gates 0;
#X obj 223 757 s \$0-step-r;
#X obj 18 82 vsl 15 128 0 127 0 0 \$0-step1-s \$0-step1-r empty 0 -9
0 10 -262144 -1 -1 0 1;
#X obj 33 82 vsl 15 128 0 127 0 0 \$0-step2-s \$0-step2-r empty 0 -9
0 10 -262144 -1 -1 0 1;
#X obj 48 82 vsl 15 128 0 127 0 0 \$0-step3-s \$0-step3-r empty 0 -9
0 10 -262144 -1 -1 0 1;
#X obj 63 82 vsl 15 128 0 127 0 0 \$0-step4-s \$0-step4-r empty 0 -9
0 10 -262144 -1 -1 0 1;
#X obj 78 82 vsl 15 128 0 127 0 0 \$0-step5-s \$0-step5-r empty 0 -9
0 10 -262144 -1 -1 0 1;
#X obj 93 82 vsl 15 128 0 127 0 0 \$0-step6-s \$0-step6-r empty 0 -9
0 10 -262144 -1 -1 0 1;
#X obj 108 82 vsl 15 128 0 127 0 0 \$0-step7-s \$0-step7-r empty 0
-9 0 10 -262144 -1 -1 0 1;
#X obj 123 82 vsl 15 128 0 127 0 0 \$0-step8-s \$0-step8-r empty 0
-9 0 10 -262144 -1 -1 0 1;
#X obj 138 82 vsl 15 128 0 127 0 0 \$0-step9-s \$0-step9-r empty 0
-9 0 10 -262144 -1 -1 0 1;
#X obj 153 82 vsl 15 128 0 127 0 0 \$0-step10-s \$0-step10-r empty
0 -9 0 10 -262144 -1 -1 0 1;
#X obj 168 82 vsl 15 128 0 127 0 0 \$0-step11-s \$0-step11-r empty
0 -9 0 10 -262144 -1 -1 0 1;
#X obj 183 82 vsl 15 128 0 127 0 0 \$0-step12-s \$0-step12-r empty
0 -9 0 10 -262144 -1 -1 0 1;
#X obj 198 82 vsl 15 128 0 127 0 0 \$0-step13-s \$0-step13-r empty
0 -9 0 10 -262144 -1 -1 0 1;
#X obj 213 82 vsl 15 128 0 127 0 0 \$0-step14-s \$0-step14-r empty
0 -9 0 10 -262144 -1 -1 0 1;
#X obj 228 82 vsl 15 128 0 127 0 0 \$0-step15-s \$0-step15-r empty
0 -9 0 10 -262144 -1 -1 0 1;
#X obj 243 82 vsl 15 128 0 127 0 0 \$0-step16-s \$0-step16-r empty
0 -9 0 10 -262144 -1 -1 0 1;
#X obj 258 82 vsl 15 128 0 127 0 0 \$0-step17-s \$0-step17-r empty
0 -9 0 10 -262144 -1 -1 0 1;
#X obj 273 82 vsl 15 128 0 127 0 0 \$0-step18-s \$0-step18-r empty
0 -9 0 10 -262144 -1 -1 0 1;
#X obj 288 82 vsl 15 128 0 127 0 0 \$0-step19-s \$0-step19-r empty
0 -9 0 10 -262144 -1 -1 0 1;
#X obj 303 82 vsl 15 128 0 127 0 0 \$0-step20-s \$0-step20-r empty
0 -9 0 10 -262144 -1 -1 0 1;
#X obj 318 82 vsl 15 128 0 127 0 0 \$0-step21-s \$0-step21-r empty
0 -9 0 10 -262144 -1 -1 0 1;
#X obj 333 82 vsl 15 128 0 127 0 0 \$0-step22-s \$0-step22-r empty
0 -9 0 10 -262144 -1 -1 0 1;
#X obj 348 82 vsl 15 128 0 127 0 0 \$0-step23-s \$0-step23-r empty
0 -9 0 10 -262144 -1 -1 0 1;
#X obj 363 82 vsl 15 128 0 127 0 0 \$0-step24-s \$0-step24-r empty
0 -9 0 10 -262144 -1 -1 0 1;
#X obj 378 82 vsl 15 128 0 127 0 0 \$0-step25-s \$0-step25-r empty
0 -9 0 10 -262144 -1 -1 0 1;
#X obj 393 82 vsl 15 128 0 127 0 0 \$0-step26-s \$0-step26-r empty
0 -9 0 10 -262144 -1 -1 0 1;
#X obj 408 82 vsl 15 128 0 127 0 0 \$0-step27-s \$0-step27-r empty
0 -9 0 10 -262144 -1 -1 0 1;
#X obj 423 82 vsl 15 128 0 127 0 0 \$0-step28-s \$0-step28-r empty
0 -9 0 10 -262144 -1 -1 0 1;
#X obj 438 82 vsl 15 128 0 127 0 0 \$0-step29-s \$0-step29-r empty
0 -9 0 10 -262144 -1 -1 0 1;
#X obj 453 82 vsl 15 128 0 127 0 0 \$0-step30-s \$0-step30-r empty
0 -9 0 10 -262144 -1 -1 0 1;
#X obj 468 82 vsl 15 128 0 127 0 0 \$0-step31-s \$0-step31-r empty
0 -9 0 10 -262144 -1 -1 0 1;
#X obj 483 82 vsl 15 128 0 127 0 0 \$0-step32-s \$0-step32-r empty
0 -9 0 10 -262144 -1 -1 0 1;
#X text 16 225 gate time;
#X obj 88 225 hsl 300 15 10 10000 1 0 \$0-gatetime-r-s \$0-gatetime-r
empty -2 -8 0 10 -262144 -1 -1 0 1;
#X obj 403 225 nbx 5 15 10 10000 0 0 empty \$0-gatetime-r empty 0 -8
0 10 -262144 -1 -1 10 256 0;
#N canvas 0 22 450 300 (subpatch) 0;
#X obj 14 18 inlet;
#X msg 14 40 set \$1;
#X obj 14 62 outlet;
#X connect 0 0 1 0;
#X connect 1 0 2 0;
#X restore 525 225 pd;
#X text 461 225 ms;
#X obj 88 250 hsl 300 15 0.1 10 1 0 \$0-gatescale-r-s \$0-gatescale-r
empty -2 -8 0 10 -262144 -1 -1 0 1;
#X obj 403 250 nbx 5 15 0.1 10 1 0 empty \$0-gatescale-r empty 0 -8
0 10 -262144 -1 -1 0.1 256 0;
#N canvas 0 22 450 300 (subpatch) 0;
#X obj 14 18 inlet;
#X msg 14 40 set \$1;
#X obj 14 62 outlet;
#X connect 0 0 1 0;
#X connect 1 0 2 0;
#X restore 525 251 pd;
#X text 461 250 x;
#X text 16 250 gate scale;
#N canvas 589 305 1052 596 paramsparams 0;
#X obj 13 -25 param.change;
#X obj 13 -5 param.set 1 \$0-play-s;
#X obj 13 15 param.set 2 \$0-rec-s;
#X obj 13 35 param.set 3 \$0-append-s;
#X obj 13 55 param.set 4 \$0-pop-s;
#X obj 13 75 param.set 5 \$0-rest-s;
#X obj 13 95 param.set 6 \$0-reset-s;
#X obj 13 115 param.set 7 \$0-gates-s;
#X obj 13 135 param.set 8 \$0-step-s;
#X obj 13 155 param.set 41 \$0-gatetime-r-s;
#X obj 13 175 param.set 42 \$0-gatescale-r-s;
#X obj 216 -16 param.get 1;
#X msg 216 6 set \$1;
#X msg 298 6 set \$1;
#X msg 379 6 set \$1;
#X msg 463 6 set \$1;
#X msg 216 77 set \$1;
#X msg 298 77 set \$1;
#X msg 379 77 set \$1;
#X msg 463 77 set \$1;
#X msg 216 151 set \$1;
#X msg 331 151 set \$1;
#X obj 298 -16 param.get 2;
#X obj 379 -16 param.get 3;
#X obj 463 -16 param.get 4;
#X obj 216 55 param.get 5;
#X obj 298 55 param.get 6;
#X obj 379 55 param.get 7;
#X obj 463 55 param.get 8;
#X obj 216 28 s \$0-play-r;
#X obj 298 28 s \$0-rec-r;
#X obj 379 28 s \$0-append-r;
#X obj 463 28 s \$0-pop-r;
#X obj 216 99 s \$0-rest-r;
#X obj 298 99 s \$0-reset-r;
#X obj 379 99 s \$0-gates-r;
#X obj 463 99 s \$0-step-r;
#X obj 216 173 s \$0-gatetime-r;
#X obj 331 173 s \$0-gatescale-r;
#X obj 216 129 param.get 41;
#X obj 331 129 param.get 42;
#X obj 13 225 param.set 9 \$0-step1-s;
#X obj 13 246 param.set 10 \$0-step2-s;
#X obj 13 267 param.set 11 \$0-step3-s;
#X obj 13 288 param.set 12 \$0-step4-s;
#X obj 13 309 param.set 13 \$0-step5-s;
#X obj 13 330 param.set 14 \$0-step6-s;
#X obj 13 351 param.set 15 \$0-step7-s;
#X obj 13 372 param.set 16 \$0-step8-s;
#X obj 13 393 param.set 17 \$0-step9-s;
#X obj 13 414 param.set 18 \$0-step10-s;
#X obj 13 435 param.set 19 \$0-step11-s;
#X obj 13 456 param.set 20 \$0-step12-s;
#X obj 13 477 param.set 21 \$0-step13-s;
#X obj 13 498 param.set 22 \$0-step14-s;
#X obj 13 519 param.set 23 \$0-step15-s;
#X obj 13 540 param.set 24 \$0-step16-s;
#X obj 164 225 param.set 25 \$0-step17-s;
#X obj 164 246 param.set 26 \$0-step18-s;
#X obj 164 267 param.set 27 \$0-step19-s;
#X obj 164 288 param.set 28 \$0-step20-s;
#X obj 164 309 param.set 29 \$0-step21-s;
#X obj 164 330 param.set 30 \$0-step22-s;
#X obj 164 351 param.set 31 \$0-step23-s;
#X obj 164 372 param.set 32 \$0-step24-s;
#X obj 164 393 param.set 33 \$0-step25-s;
#X obj 164 414 param.set 34 \$0-step26-s;
#X obj 164 435 param.set 35 \$0-step27-s;
#X obj 164 456 param.set 36 \$0-step28-s;
#X obj 164 477 param.set 37 \$0-step29-s;
#X obj 164 498 param.set 38 \$0-step30-s;
#X obj 164 519 param.set 39 \$0-step31-s;
#X obj 164 540 param.set 40 \$0-step32-s;
#X msg 322 246 set \$1;
#X obj 322 225 param.get 9;
#X obj 322 267 s \$0-step1-r;
#X msg 407 246 set \$1;
#X msg 493 246 set \$1;
#X msg 578 246 set \$1;
#X msg 659 246 set \$1;
#X msg 744 246 set \$1;
#X msg 830 246 set \$1;
#X msg 915 246 set \$1;
#X msg 322 330 set \$1;
#X msg 407 330 set \$1;
#X msg 493 330 set \$1;
#X msg 578 330 set \$1;
#X msg 659 330 set \$1;
#X msg 744 330 set \$1;
#X msg 830 330 set \$1;
#X msg 915 330 set \$1;
#X msg 322 414 set \$1;
#X msg 407 414 set \$1;
#X msg 493 414 set \$1;
#X msg 578 414 set \$1;
#X msg 659 414 set \$1;
#X msg 744 414 set \$1;
#X msg 830 414 set \$1;
#X msg 915 414 set \$1;
#X msg 322 498 set \$1;
#X msg 407 498 set \$1;
#X msg 493 498 set \$1;
#X msg 578 498 set \$1;
#X msg 659 498 set \$1;
#X msg 744 498 set \$1;
#X msg 830 498 set \$1;
#X msg 915 498 set \$1;
#X obj 407 225 param.get 10;
#X obj 493 225 param.get 11;
#X obj 578 225 param.get 12;
#X obj 659 225 param.get 13;
#X obj 744 225 param.get 14;
#X obj 829 225 param.get 15;
#X obj 915 225 param.get 16;
#X obj 322 309 param.get 17;
#X obj 407 309 param.get 18;
#X obj 493 309 param.get 19;
#X obj 578 309 param.get 20;
#X obj 659 309 param.get 21;
#X obj 744 309 param.get 22;
#X obj 830 309 param.get 23;
#X obj 915 309 param.get 24;
#X obj 322 393 param.get 25;
#X obj 407 393 param.get 26;
#X obj 493 393 param.get 27;
#X obj 578 393 param.get 28;
#X obj 659 393 param.get 29;
#X obj 744 393 param.get 30;
#X obj 830 393 param.get 31;
#X obj 915 393 param.get 32;
#X obj 322 477 param.get 33;
#X obj 407 477 param.get 34;
#X obj 493 477 param.get 35;
#X obj 578 477 param.get 36;
#X obj 659 477 param.get 37;
#X obj 744 477 param.get 38;
#X obj 830 477 param.get 39;
#X obj 915 477 param.get 40;
#X obj 915 519 s \$0-step32-r;
#X obj 829 519 s \$0-step31-r;
#X obj 744 519 s \$0-step30-r;
#X obj 659 519 s \$0-step29-r;
#X obj 578 519 s \$0-step28-r;
#X obj 493 519 s \$0-step27-r;
#X obj 407 519 s \$0-step26-r;
#X obj 322 520 s \$0-step25-r;
#X obj 914 435 s \$0-step24-r;
#X obj 829 435 s \$0-step23-r;
#X obj 744 434 s \$0-step22-r;
#X obj 659 435 s \$0-step21-r;
#X obj 578 435 s \$0-step20-r;
#X obj 493 435 s \$0-step19-r;
#X obj 408 435 s \$0-step18-r;
#X obj 322 435 s \$0-step17-r;
#X obj 915 351 s \$0-step16-r;
#X obj 830 351 s \$0-step15-r;
#X obj 744 351 s \$0-step14-r;
#X obj 659 351 s \$0-step13-r;
#X obj 578 351 s \$0-step12-r;
#X obj 408 267 s \$0-step2-r;
#X obj 493 267 s \$0-step3-r;
#X obj 578 267 s \$0-step4-r;
#X obj 659 267 s \$0-step5-r;
#X obj 744 267 s \$0-step6-r;
#X obj 830 267 s \$0-step7-r;
#X obj 915 267 s \$0-step8-r;
#X obj 322 351 s \$0-step9-r;
#X obj 407 352 s \$0-step10-r;
#X obj 493 351 s \$0-step11-r;
#X msg 446 151 set \$1;
#X obj 446 129 param.get 43;
#X obj 446 173 s \$0-speed-r;
#X obj 13 195 param.set 43 \$0-speed;
#X connect 11 0 12 0;
#X connect 12 0 29 0;
#X connect 13 0 30 0;
#X connect 14 0 31 0;
#X connect 15 0 32 0;
#X connect 16 0 33 0;
#X connect 17 0 34 0;
#X connect 18 0 35 0;
#X connect 19 0 36 0;
#X connect 20 0 37 0;
#X connect 21 0 38 0;
#X connect 22 0 13 0;
#X connect 23 0 14 0;
#X connect 24 0 15 0;
#X connect 25 0 16 0;
#X connect 26 0 17 0;
#X connect 27 0 18 0;
#X connect 28 0 19 0;
#X connect 39 0 20 0;
#X connect 40 0 21 0;
#X connect 73 0 75 0;
#X connect 74 0 73 0;
#X connect 76 0 159 0;
#X connect 77 0 160 0;
#X connect 78 0 161 0;
#X connect 79 0 162 0;
#X connect 80 0 163 0;
#X connect 81 0 164 0;
#X connect 82 0 165 0;
#X connect 83 0 166 0;
#X connect 84 0 167 0;
#X connect 85 0 168 0;
#X connect 86 0 158 0;
#X connect 87 0 157 0;
#X connect 88 0 156 0;
#X connect 89 0 155 0;
#X connect 90 0 154 0;
#X connect 91 0 153 0;
#X connect 92 0 152 0;
#X connect 93 0 151 0;
#X connect 94 0 150 0;
#X connect 95 0 149 0;
#X connect 96 0 148 0;
#X connect 97 0 147 0;
#X connect 98 0 146 0;
#X connect 99 0 145 0;
#X connect 100 0 144 0;
#X connect 101 0 143 0;
#X connect 102 0 142 0;
#X connect 103 0 141 0;
#X connect 104 0 140 0;
#X connect 105 0 139 0;
#X connect 106 0 138 0;
#X connect 107 0 76 0;
#X connect 108 0 77 0;
#X connect 109 0 78 0;
#X connect 110 0 79 0;
#X connect 111 0 80 0;
#X connect 112 0 81 0;
#X connect 113 0 82 0;
#X connect 114 0 83 0;
#X connect 115 0 84 0;
#X connect 116 0 85 0;
#X connect 117 0 86 0;
#X connect 118 0 87 0;
#X connect 119 0 88 0;
#X connect 120 0 89 0;
#X connect 121 0 90 0;
#X connect 122 0 91 0;
#X connect 123 0 92 0;
#X connect 124 0 93 0;
#X connect 125 0 94 0;
#X connect 126 0 95 0;
#X connect 127 0 96 0;
#X connect 128 0 97 0;
#X connect 129 0 98 0;
#X connect 130 0 99 0;
#X connect 131 0 100 0;
#X connect 132 0 101 0;
#X connect 133 0 102 0;
#X connect 134 0 103 0;
#X connect 135 0 104 0;
#X connect 136 0 105 0;
#X connect 137 0 106 0;
#X connect 169 0 171 0;
#X connect 170 0 169 0;
#X restore 528 19 pd paramsparams;
#X obj 223 680 sequence, f 66;
#X msg 15 496 play \$1;
#X obj 95 344 r \$0-rec-s;
#X msg 95 496 record \$1;
#X obj 169 454 r \$0-append-s;
#X obj 474 541 notein;
#X obj 474 563 pack f f;
#X obj 474 585 route 0 1 2 3 4 5 6 7 8;
#X obj 380 845 unpack f f;
#X obj 437 889 makefilename \$0-step%d-r;
#X obj 437 867 + 1;
#X obj 380 911 s;
#X obj 407 779 spigot;
#X obj 440 757 r \$0-append-s;
#X msg 407 801 0;
#X msg 169 518 append;
#X obj 261 454 r \$0-pop-s;
#X obj 261 496 t b;
#X msg 261 518 pop;
#N canvas 604 169 650 300 stepfaders 0;
#X obj 17 12 stepfader \$0-step1-s 0;
#X obj 24 238 outlet;
#X obj 17 34 stepfader \$0-step2-s 1;
#X obj 17 56 stepfader \$0-step3-s 2;
#X obj 17 78 stepfader \$0-step4-s 3;
#X obj 17 100 stepfader \$0-step5-s 4;
#X obj 17 122 stepfader \$0-step6-s 5;
#X obj 17 144 stepfader \$0-step7-s 6;
#X obj 17 166 stepfader \$0-step8-s 7;
#X obj 163 12 stepfader \$0-step9-s 8;
#X obj 163 34 stepfader \$0-step10-s 9;
#X obj 163 56 stepfader \$0-step11-s 10;
#X obj 163 78 stepfader \$0-step12-s 11;
#X obj 163 100 stepfader \$0-step13-s 12;
#X obj 163 122 stepfader \$0-step14-s 13;
#X obj 163 144 stepfader \$0-step15-s 14;
#X obj 163 166 stepfader \$0-step16-s 15;
#X obj 319 12 stepfader \$0-step17-s 16;
#X obj 319 34 stepfader \$0-step18-s 17;
#X obj 319 56 stepfader \$0-step19-s 18;
#X obj 319 78 stepfader \$0-step20-s 19;
#X obj 319 100 stepfader \$0-step21-s 20;
#X obj 319 122 stepfader \$0-step22-s 21;
#X obj 319 144 stepfader \$0-step23-s 22;
#X obj 319 166 stepfader \$0-step24-s 23;
#X obj 477 12 stepfader \$0-step25-s 24;
#X obj 477 34 stepfader \$0-step26-s 25;
#X obj 477 56 stepfader \$0-step27-s 26;
#X obj 477 78 stepfader \$0-step28-s 27;
#X obj 477 100 stepfader \$0-step29-s 28;
#X obj 477 122 stepfader \$0-step30-s 29;
#X obj 477 144 stepfader \$0-step31-s 30;
#X obj 477 166 stepfader \$0-step32-s 31;
#X connect 0 0 1 0;
#X connect 2 0 1 0;
#X connect 3 0 1 0;
#X connect 4 0 1 0;
#X connect 5 0 1 0;
#X connect 6 0 1 0;
#X connect 7 0 1 0;
#X connect 8 0 1 0;
#X connect 9 0 1 0;
#X connect 10 0 1 0;
#X connect 11 0 1 0;
#X connect 12 0 1 0;
#X connect 13 0 1 0;
#X connect 14 0 1 0;
#X connect 15 0 1 0;
#X connect 16 0 1 0;
#X connect 17 0 1 0;
#X connect 18 0 1 0;
#X connect 19 0 1 0;
#X connect 20 0 1 0;
#X connect 21 0 1 0;
#X connect 22 0 1 0;
#X connect 23 0 1 0;
#X connect 24 0 1 0;
#X connect 25 0 1 0;
#X connect 26 0 1 0;
#X connect 27 0 1 0;
#X connect 28 0 1 0;
#X connect 29 0 1 0;
#X connect 30 0 1 0;
#X connect 31 0 1 0;
#X connect 32 0 1 0;
#X restore 419 655 pd stepfaders;
#X obj 517 635 r \$0-gatetime-r-s;
#X obj 616 655 r \$0-gatescale-r-s;
#X obj 501 454 r \$0-gates-s;
#X msg 501 476 gates \$1;
#X obj 415 454 r \$0-reset-s;
#X msg 415 476 reset;
#X obj 335 454 r \$0-rest-s;
#X obj 335 496 t b;
#X msg 335 518 rest;
#X msg 380 889 set \$1;
#X obj 15 627 r playhead;
#X obj 88 275 hradio 15 0 0 8 \$0-speed \$0-speed-r empty 0 -8 0 10
-262144 -1 -1 0;
#X text 53 275 speed;
#X symbolatom 212 275 10 0 0 0 - #0-speedsym -, f 10;
#X text 529 49 "control" notes are handled here;
#X text 530 563 "regular" notes are handled here;
#X text 301 35 add rest;
#X obj 18 37 bng 15 250 50 0 empty \$0-clock empty 17 7 0 10 -262144
-258049 -1;
#X obj 15 692 s \$0-clock;
#X obj 407 823 s \$0-append-r;
#X text 358 35 reset clk;
#X obj 377 20 bng 15 250 50 0 \$0-reset-s \$0-reset-r empty 17 7 0
10 -262144 -1 -1;
#X obj 242 20 bng 15 250 50 0 \$0-pop-s \$0-pop-r empty 17 7 0 10 -166441
-33289 -33289;
#X obj 317 20 bng 15 250 50 0 \$0-rest-s \$0-rest-r empty 17 7 0 10
-166441 -33289 -33289;
#X msg 406 364 color \$1 12 12;
#X obj 406 342 == 0;
#X obj 417 390 s \$0-append-r;
#X obj 417 410 s \$0-pop-r;
#X obj 417 430 s \$0-rest-r;
#X obj 263 417 tgl 15 0 empty empty empty 17 7 0 10 -262144 -1 -1 0
1;
#X obj 169 475 spigot;
#X obj 169 496 t b;
#X obj 261 475 spigot;
#X obj 335 475 spigot;
#N canvas 615 23 507 300 clock 0;
#X obj 227 92 sel 0 1 2 3 4 5 6 7;
#X msg 227 124 0.5;
#X msg 241 145 1;
#X msg 255 124 1.5;
#X msg 269 145 2;
#X msg 283 124 3;
#X msg 297 145 4;
#X msg 311 124 6;
#X msg 325 145 8;
#X obj 366 92 sel 0 1 2 3 4 5 6 7;
#X msg 366 124 1/2;
#X msg 380 145 1/4;
#X msg 394 124 1/6;
#X msg 408 145 1/8;
#X msg 422 124 1/12;
#X msg 436 145 1/16;
#X msg 450 124 1/24;
#X msg 464 145 1/32;
#X obj 366 172 symbol;
#X obj 366 194 s \$0-speedsym;
#X obj 227 172 s \$0-speedmult;
#X obj 83 116 change;
#X obj 32 141 spigot;
#X obj 32 116 unpack;
#X obj 32 184 * 0.5;
#X obj 32 206 i;
#X obj 32 228 change;
#X obj 59 163 r \$0-speedmult;
#X obj 32 94 route position playing;
#X obj 32 71 inlet playhead;
#X obj 32 250 outlet clock;
#X obj 227 71 inlet speed;
#X connect 0 0 1 0;
#X connect 0 1 2 0;
#X connect 0 2 3 0;
#X connect 0 3 4 0;
#X connect 0 4 5 0;
#X connect 0 5 6 0;
#X connect 0 6 7 0;
#X connect 0 7 8 0;
#X connect 1 0 20 0;
#X connect 2 0 20 0;
#X connect 3 0 20 0;
#X connect 4 0 20 0;
#X connect 5 0 20 0;
#X connect 6 0 20 0;
#X connect 7 0 20 0;
#X connect 8 0 20 0;
#X connect 9 0 10 0;
#X connect 9 1 11 0;
#X connect 9 2 12 0;
#X connect 9 3 13 0;
#X connect 9 4 14 0;
#X connect 9 5 15 0;
#X connect 9 6 16 0;
#X connect 9 7 17 0;
#X connect 10 0 18 0;
#X connect 11 0 18 0;
#X connect 12 0 18 0;
#X connect 13 0 18 0;
#X connect 14 0 18 0;
#X connect 15 0 18 0;
#X connect 16 0 18 0;
#X connect 17 0 18 0;
#X connect 18 0 19 0;
#X connect 21 0 22 1;
#X connect 22 0 24 0;
#X connect 23 0 22 0;
#X connect 24 0 25 0;
#X connect 25 0 26 0;
#X connect 26 0 30 0;
#X connect 27 0 24 1;
#X connect 28 0 23 0;
#X connect 28 1 21 0;
#X connect 29 0 28 0;
#X connect 31 0 9 0;
#X connect 31 0 0 0;
#X restore 15 649 pd clock, f 13;
#X obj 90 627 r \$0-speed;
#X obj 380 757 t l b;
#X text 440 342 if not in record mode \, color grey;
#X obj 32 747 tgl 15 0 empty empty empty 17 7 0 10 -262144 -1 -1 0
1;
#X obj 32 767 metro 500;
#X obj 612 263 notein;
#X floatatom 612 285 5 0 0 0 - - -, f 5;
#X obj 301 757 noteout 1;
#X connect 10 0 63 0;
#X connect 10 0 101 0;
#X connect 11 0 64 0;
#X connect 53 0 55 0;
#X connect 54 0 53 0;
#X connect 55 0 54 0;
#X connect 57 0 59 0;
#X connect 58 0 57 0;
#X connect 59 0 58 0;
#X connect 63 0 19 0;
#X connect 63 1 125 0;
#X connect 63 2 119 0;
#X connect 64 0 63 0;
#X connect 65 0 66 0;
#X connect 65 0 108 0;
#X connect 65 0 112 0;
#X connect 66 0 63 0;
#X connect 67 0 113 0;
#X connect 68 0 69 0;
#X connect 68 1 69 1;
#X connect 69 0 70 0;
#X connect 70 9 63 1;
#X connect 71 0 92 0;
#X connect 71 1 73 0;
#X connect 72 0 74 1;
#X connect 73 0 72 0;
#X connect 75 0 77 0;
#X connect 76 0 75 1;
#X connect 77 0 102 0;
#X connect 78 0 63 0;
#X connect 79 0 115 0;
#X connect 80 0 81 0;
#X connect 81 0 63 0;
#X connect 82 0 63 2;
#X connect 83 0 63 3;
#X connect 84 0 63 4;
#X connect 85 0 86 0;
#X connect 86 0 63 0;
#X connect 87 0 88 0;
#X connect 88 0 63 0;
#X connect 89 0 116 0;
#X connect 90 0 91 0;
#X connect 91 0 63 0;
#X connect 92 0 74 0;
#X connect 93 0 117 0;
#X connect 107 0 110 0;
#X connect 107 0 111 0;
#X connect 107 0 109 0;
#X connect 108 0 107 0;
#X connect 112 0 113 1;
#X connect 112 0 116 1;
#X connect 112 0 115 1;
#X connect 113 0 114 0;
#X connect 114 0 78 0;
#X connect 115 0 80 0;
#X connect 116 0 90 0;
#X connect 117 0 10 0;
#X connect 118 0 117 1;
#X connect 119 0 71 0;
#X connect 119 1 75 0;
#X connect 121 0 122 0;
#X connect 123 0 124 0;
#X coords 0 -1 1 1 496 290 1 10 10;
