#N canvas 869 23 811 982 10;
#X obj 80 34 hradio 15 0 0 2 \$0-play-s \$0-play-r empty 0 -8 0 10
-262144 -1 -1 0;
#X obj 155 34 tgl 15 0 \$0-rec-s \$0-rec-r empty 17 7 0 10 -262144
-1 -1 0 1;
#X text 113 34 record;
#X obj 214 34 tgl 15 0 \$0-append-s \$0-append-r empty 17 7 0 10 -262144
-1 -1 0 1;
#X obj 296 34 tgl 15 0 \$0-pop-s \$0-pop-r empty 17 7 0 10 -262144
-1 -1 0 1;
#X text 173 34 append;
#X text 232 34 clear last;
#X obj 342 34 tgl 15 0 \$0-rest-s \$0-rest-r empty 17 7 0 10 -262144
-1 -1 0 1;
#X text 314 34 rest;
#X text 415 34 vel/gate;
#X obj 468 34 hradio 15 0 0 2 \$0-gates-s \$0-gates-r empty 0 -8 0
10 -262144 -1 -1 0;
#X text 15 33 pause/play;
#X obj 18 57 hradio 15 0 0 32 \$0-step-s \$0-step-r empty 0 -8 0 10
-262144 -258049 -89601 0;
#X text 360 34 reset;
#X obj 394 34 tgl 15 0 \$0-reset-s \$0-reset-r empty 17 7 0 10 -262144
-1 -1 0 1;
#X obj 15 288 notein;
#X obj 15 342 pack f f;
#X obj 11 452 bng 15 250 50 0 empty empty empty 17 7 0 10 -262144 -1
-1;
#X obj 93 452 bng 15 250 50 0 empty empty empty 17 7 0 10 -262144 -1
-1;
#X obj 184 452 bng 15 250 50 0 empty empty empty 17 7 0 10 -262144
-1 -1;
#X obj 276 452 bng 15 250 50 0 empty empty empty 17 7 0 10 -262144
-1 -1;
#X obj 346 452 bng 15 250 50 0 empty empty empty 17 7 0 10 -262144
-1 -1;
#X obj 428 452 bng 15 250 50 0 empty empty empty 17 7 0 10 -262144
-1 -1;
#X obj 519 452 bng 15 250 50 0 empty empty empty 17 7 0 10 -262144
-1 -1;
#X obj 106 638 bng 15 250 50 0 empty empty clock 17 7 0 10 -262144
-1 -1;
#X obj 15 367 route 1 2 3 4 5 6 7 8;
#X obj 15 315 stripnote;
#X obj 12 474 r \$0-play-s;
#X obj 529 51 midi.note.link 1 1 \$0-play 0;
#X obj 529 71 midi.note.link 2 2 \$0-rec 0;
#X obj 529 91 midi.note.link 3 3 \$0-append 0;
#X obj 529 111 midi.note.link 4 4 \$0-pop 0;
#X obj 529 131 midi.note.link 5 5 \$0-rest 0;
#X obj 529 151 midi.note.link 6 6 \$0-reset 0;
#X obj 529 171 midi.note.link 7 7 \$0-gates 0;
#X obj 223 757 s \$0-step-r;
#X obj 18 82 vsl 15 128 0 127 0 0 \$0-step1-s \$0-step1-r empty 0 -9
0 10 -262144 -1 -1 0 1;
#X obj 33 82 vsl 15 128 0 127 0 0 \$0-step2-s \$0-step2-r empty 0 -9
0 10 -262144 -1 -1 0 1;
#X obj 48 82 vsl 15 128 0 127 0 0 \$0-step3-s \$0-step3-r empty 0 -9
0 10 -262144 -1 -1 0 1;
#X obj 63 82 vsl 15 128 0 127 0 0 \$0-step4-s \$0-step4-r empty 0 -9
0 10 -262144 -1 -1 0 1;
#X obj 78 82 vsl 15 128 0 127 0 0 \$0-step5-s \$0-step5-r empty 0 -9
0 10 -262144 -1 -1 0 1;
#X obj 93 82 vsl 15 128 0 127 0 0 \$0-step6-s \$0-step6-r empty 0 -9
0 10 -262144 -1 -1 0 1;
#X obj 108 82 vsl 15 128 0 127 0 0 \$0-step7-s \$0-step7-r empty 0
-9 0 10 -262144 -1 -1 0 1;
#X obj 123 82 vsl 15 128 0 127 0 0 \$0-step8-s \$0-step8-r empty 0
-9 0 10 -262144 -1 -1 0 1;
#X obj 138 82 vsl 15 128 0 127 0 0 \$0-step9-s \$0-step9-r empty 0
-9 0 10 -262144 -1 -1 0 1;
#X obj 153 82 vsl 15 128 0 127 0 0 \$0-step10-s \$0-step10-r empty
0 -9 0 10 -262144 -1 -1 0 1;
#X obj 168 82 vsl 15 128 0 127 0 0 \$0-step11-s \$0-step11-r empty
0 -9 0 10 -262144 -1 -1 0 1;
#X obj 183 82 vsl 15 128 0 127 0 0 \$0-step12-s \$0-step12-r empty
0 -9 0 10 -262144 -1 -1 0 1;
#X obj 198 82 vsl 15 128 0 127 0 0 \$0-step13-s \$0-step13-r empty
0 -9 0 10 -262144 -1 -1 0 1;
#X obj 213 82 vsl 15 128 0 127 0 0 \$0-step14-s \$0-step14-r empty
0 -9 0 10 -262144 -1 -1 0 1;
#X obj 228 82 vsl 15 128 0 127 0 0 \$0-step15-s \$0-step15-r empty
0 -9 0 10 -262144 -1 -1 0 1;
#X obj 243 82 vsl 15 128 0 127 0 0 \$0-step16-s \$0-step16-r empty
0 -9 0 10 -262144 -1 -1 0 1;
#X obj 258 82 vsl 15 128 0 127 0 0 \$0-step17-s \$0-step17-r empty
0 -9 0 10 -262144 -1 -1 0 1;
#X obj 273 82 vsl 15 128 0 127 0 0 \$0-step18-s \$0-step18-r empty
0 -9 0 10 -262144 -1 -1 0 1;
#X obj 288 82 vsl 15 128 0 127 0 0 \$0-step19-s \$0-step19-r empty
0 -9 0 10 -262144 -1 -1 0 1;
#X obj 303 82 vsl 15 128 0 127 0 0 \$0-step20-s \$0-step20-r empty
0 -9 0 10 -262144 -1 -1 0 1;
#X obj 318 82 vsl 15 128 0 127 0 0 \$0-step21-s \$0-step21-r empty
0 -9 0 10 -262144 -1 -1 0 1;
#X obj 333 82 vsl 15 128 0 127 0 0 \$0-step22-s \$0-step22-r empty
0 -9 0 10 -262144 -1 -1 0 1;
#X obj 348 82 vsl 15 128 0 127 0 0 \$0-step23-s \$0-step23-r empty
0 -9 0 10 -262144 -1 -1 0 1;
#X obj 363 82 vsl 15 128 0 127 0 0 \$0-step24-s \$0-step24-r empty
0 -9 0 10 -262144 -1 -1 0 1;
#X obj 378 82 vsl 15 128 0 127 0 0 \$0-step25-s \$0-step25-r empty
0 -9 0 10 -262144 -1 -1 0 1;
#X obj 393 82 vsl 15 128 0 127 0 0 \$0-step26-s \$0-step26-r empty
0 -9 0 10 -262144 -1 -1 0 1;
#X obj 408 82 vsl 15 128 0 127 0 0 \$0-step27-s \$0-step27-r empty
0 -9 0 10 -262144 -1 -1 0 1;
#X obj 423 82 vsl 15 128 0 127 0 0 \$0-step28-s \$0-step28-r empty
0 -9 0 10 -262144 -1 -1 0 1;
#X obj 438 82 vsl 15 128 0 127 0 0 \$0-step29-s \$0-step29-r empty
0 -9 0 10 -262144 -1 -1 0 1;
#X obj 453 82 vsl 15 128 0 127 0 0 \$0-step30-s \$0-step30-r empty
0 -9 0 10 -262144 -1 -1 0 1;
#X obj 468 82 vsl 15 128 0 127 0 0 \$0-step31-s \$0-step31-r empty
0 -9 0 10 -262144 -1 -1 0 1;
#X obj 483 82 vsl 15 128 0 127 0 0 \$0-step32-s \$0-step32-r empty
0 -9 0 10 -262144 -1 -1 0 1;
#X text 16 225 gate time;
#X obj 88 225 hsl 300 15 10 10000 1 0 \$0-gatetime-r-s \$0-gatetime-r
empty -2 -8 0 10 -262144 -1 -1 0 1;
#X obj 403 225 nbx 5 15 10 10000 0 0 empty \$0-gatetime-r empty 0 -8
0 10 -262144 -1 -1 10 256 0;
#N canvas 0 22 450 300 (subpatch) 0;
#X obj 14 18 inlet;
#X msg 14 40 set \$1;
#X obj 14 62 outlet;
#X connect 0 0 1 0;
#X connect 1 0 2 0;
#X restore 525 225 pd;
#X text 461 225 ms;
#X obj 88 250 hsl 300 15 0.1 10 1 0 \$0-gatescale-r-s \$0-gatescale-r
empty -2 -8 0 10 -262144 -1 -1 0 1;
#X obj 403 250 nbx 5 15 0.1 10 1 0 empty \$0-gatescale-r empty 0 -8
0 10 -262144 -1 -1 0.1 256 0;
#N canvas 0 22 450 300 (subpatch) 0;
#X obj 14 18 inlet;
#X msg 14 40 set \$1;
#X obj 14 62 outlet;
#X connect 0 0 1 0;
#X connect 1 0 2 0;
#X restore 525 251 pd;
#X text 461 250 x;
#X text 16 250 gate scale;
#N canvas 101 103 1009 749 paramsparams 0;
#X obj 16 -105 param.change;
#X obj 16 -85 param.set 1 \$0-play-s;
#X obj 16 -65 param.set 2 \$0-rec-s;
#X obj 16 -45 param.set 3 \$0-append-s;
#X obj 16 -25 param.set 4 \$0-pop-s;
#X obj 16 -5 param.set 5 \$0-rest-s;
#X obj 16 15 param.set 6 \$0-reset-s;
#X obj 16 35 param.set 7 \$0-gates-s;
#X obj 16 55 param.set 8 \$0-step-s;
#X obj 16 75 param.set 41 \$0-gatetime-r-s;
#X obj 16 95 param.set 42 \$0-gatescale-r-s;
#X obj 219 -86 param.get 1;
#X msg 219 -64 set \$1;
#X msg 301 -65 set \$1;
#X msg 382 -66 set \$1;
#X msg 466 -67 set \$1;
#X msg 220 7 set \$1;
#X msg 302 6 set \$1;
#X msg 383 5 set \$1;
#X msg 465 4 set \$1;
#X msg 222 81 set \$1;
#X msg 334 80 set \$1;
#X obj 301 -87 param.get 2;
#X obj 382 -88 param.get 3;
#X obj 466 -89 param.get 4;
#X obj 220 -15 param.get 5;
#X obj 302 -16 param.get 6;
#X obj 383 -17 param.get 7;
#X obj 465 -18 param.get 8;
#X obj 219 -42 s \$0-play-r;
#X obj 301 -43 s \$0-rec-r;
#X obj 382 -44 s \$0-append-r;
#X obj 466 -45 s \$0-pop-r;
#X obj 220 29 s \$0-rest-r;
#X obj 302 28 s \$0-reset-r;
#X obj 383 27 s \$0-gates-r;
#X obj 465 26 s \$0-step-r;
#X obj 222 103 s \$0-gatetime-r;
#X obj 334 102 s \$0-gatescale-r;
#X obj 222 59 param.get 41;
#X obj 334 58 param.get 42;
#X obj 13 205 param.set 9 \$0-step1-s;
#X obj 13 226 param.set 10 \$0-step2-s;
#X obj 13 247 param.set 11 \$0-step3-s;
#X obj 13 268 param.set 12 \$0-step4-s;
#X obj 13 289 param.set 13 \$0-step5-s;
#X obj 13 310 param.set 14 \$0-step6-s;
#X obj 13 331 param.set 15 \$0-step7-s;
#X obj 13 352 param.set 16 \$0-step8-s;
#X obj 13 373 param.set 17 \$0-step9-s;
#X obj 13 394 param.set 18 \$0-step10-s;
#X obj 13 415 param.set 19 \$0-step11-s;
#X obj 13 436 param.set 20 \$0-step12-s;
#X obj 13 457 param.set 21 \$0-step13-s;
#X obj 13 478 param.set 22 \$0-step14-s;
#X obj 13 499 param.set 23 \$0-step15-s;
#X obj 13 520 param.set 24 \$0-step16-s;
#X obj 164 205 param.set 25 \$0-step17-s;
#X obj 164 226 param.set 26 \$0-step18-s;
#X obj 164 247 param.set 27 \$0-step19-s;
#X obj 164 268 param.set 28 \$0-step20-s;
#X obj 164 289 param.set 29 \$0-step21-s;
#X obj 164 310 param.set 30 \$0-step22-s;
#X obj 164 331 param.set 31 \$0-step23-s;
#X obj 164 352 param.set 32 \$0-step24-s;
#X obj 164 373 param.set 33 \$0-step25-s;
#X obj 164 394 param.set 34 \$0-step26-s;
#X obj 164 415 param.set 35 \$0-step27-s;
#X obj 164 436 param.set 36 \$0-step28-s;
#X obj 164 457 param.set 37 \$0-step29-s;
#X obj 164 478 param.set 38 \$0-step30-s;
#X obj 164 499 param.set 39 \$0-step31-s;
#X obj 164 520 param.set 40 \$0-step32-s;
#X msg 322 226 set \$1;
#X obj 322 205 param.get 9;
#X obj 322 247 s \$0-step1-r;
#X msg 407 226 set \$1;
#X msg 493 226 set \$1;
#X msg 578 226 set \$1;
#X msg 659 226 set \$1;
#X msg 744 226 set \$1;
#X msg 830 226 set \$1;
#X msg 915 226 set \$1;
#X msg 322 310 set \$1;
#X msg 407 310 set \$1;
#X msg 493 310 set \$1;
#X msg 578 310 set \$1;
#X msg 659 310 set \$1;
#X msg 744 310 set \$1;
#X msg 830 310 set \$1;
#X msg 915 310 set \$1;
#X msg 322 394 set \$1;
#X msg 407 394 set \$1;
#X msg 493 394 set \$1;
#X msg 578 394 set \$1;
#X msg 659 394 set \$1;
#X msg 744 394 set \$1;
#X msg 830 394 set \$1;
#X msg 915 394 set \$1;
#X msg 322 478 set \$1;
#X msg 407 478 set \$1;
#X msg 493 478 set \$1;
#X msg 578 478 set \$1;
#X msg 659 478 set \$1;
#X msg 744 478 set \$1;
#X msg 830 478 set \$1;
#X msg 915 478 set \$1;
#X obj 407 205 param.get 10;
#X obj 493 205 param.get 11;
#X obj 578 205 param.get 12;
#X obj 659 205 param.get 13;
#X obj 744 205 param.get 14;
#X obj 829 205 param.get 15;
#X obj 915 205 param.get 16;
#X obj 322 289 param.get 17;
#X obj 407 289 param.get 18;
#X obj 493 289 param.get 19;
#X obj 578 289 param.get 20;
#X obj 659 289 param.get 21;
#X obj 744 289 param.get 22;
#X obj 830 289 param.get 23;
#X obj 915 289 param.get 24;
#X obj 322 373 param.get 25;
#X obj 407 373 param.get 26;
#X obj 493 373 param.get 27;
#X obj 578 373 param.get 28;
#X obj 659 373 param.get 29;
#X obj 744 373 param.get 30;
#X obj 830 373 param.get 31;
#X obj 915 373 param.get 32;
#X obj 322 457 param.get 33;
#X obj 407 457 param.get 34;
#X obj 493 457 param.get 35;
#X obj 578 457 param.get 36;
#X obj 659 457 param.get 37;
#X obj 744 457 param.get 38;
#X obj 830 457 param.get 39;
#X obj 915 457 param.get 40;
#X obj 915 499 s \$0-step32-r;
#X obj 829 499 s \$0-step31-r;
#X obj 744 499 s \$0-step30-r;
#X obj 659 499 s \$0-step29-r;
#X obj 578 499 s \$0-step28-r;
#X obj 493 499 s \$0-step27-r;
#X obj 407 499 s \$0-step26-r;
#X obj 322 500 s \$0-step25-r;
#X obj 914 415 s \$0-step24-r;
#X obj 829 415 s \$0-step23-r;
#X obj 744 414 s \$0-step22-r;
#X obj 659 415 s \$0-step21-r;
#X obj 578 415 s \$0-step20-r;
#X obj 493 415 s \$0-step19-r;
#X obj 408 415 s \$0-step18-r;
#X obj 322 415 s \$0-step17-r;
#X obj 915 331 s \$0-step16-r;
#X obj 830 331 s \$0-step15-r;
#X obj 744 331 s \$0-step14-r;
#X obj 659 331 s \$0-step13-r;
#X obj 578 331 s \$0-step12-r;
#X obj 408 247 s \$0-step2-r;
#X obj 493 247 s \$0-step3-r;
#X obj 578 247 s \$0-step4-r;
#X obj 659 247 s \$0-step5-r;
#X obj 744 247 s \$0-step6-r;
#X obj 830 247 s \$0-step7-r;
#X obj 915 247 s \$0-step8-r;
#X obj 322 331 s \$0-step9-r;
#X obj 407 332 s \$0-step10-r;
#X obj 493 331 s \$0-step11-r;
#X connect 11 0 12 0;
#X connect 12 0 29 0;
#X connect 13 0 30 0;
#X connect 14 0 31 0;
#X connect 15 0 32 0;
#X connect 16 0 33 0;
#X connect 17 0 34 0;
#X connect 18 0 35 0;
#X connect 19 0 36 0;
#X connect 20 0 37 0;
#X connect 21 0 38 0;
#X connect 22 0 13 0;
#X connect 23 0 14 0;
#X connect 24 0 15 0;
#X connect 25 0 16 0;
#X connect 26 0 17 0;
#X connect 27 0 18 0;
#X connect 28 0 19 0;
#X connect 39 0 20 0;
#X connect 40 0 21 0;
#X connect 73 0 75 0;
#X connect 74 0 73 0;
#X connect 76 0 159 0;
#X connect 77 0 160 0;
#X connect 78 0 161 0;
#X connect 79 0 162 0;
#X connect 80 0 163 0;
#X connect 81 0 164 0;
#X connect 82 0 165 0;
#X connect 83 0 166 0;
#X connect 84 0 167 0;
#X connect 85 0 168 0;
#X connect 86 0 158 0;
#X connect 87 0 157 0;
#X connect 88 0 156 0;
#X connect 89 0 155 0;
#X connect 90 0 154 0;
#X connect 91 0 153 0;
#X connect 92 0 152 0;
#X connect 93 0 151 0;
#X connect 94 0 150 0;
#X connect 95 0 149 0;
#X connect 96 0 148 0;
#X connect 97 0 147 0;
#X connect 98 0 146 0;
#X connect 99 0 145 0;
#X connect 100 0 144 0;
#X connect 101 0 143 0;
#X connect 102 0 142 0;
#X connect 103 0 141 0;
#X connect 104 0 140 0;
#X connect 105 0 139 0;
#X connect 106 0 138 0;
#X connect 107 0 76 0;
#X connect 108 0 77 0;
#X connect 109 0 78 0;
#X connect 110 0 79 0;
#X connect 111 0 80 0;
#X connect 112 0 81 0;
#X connect 113 0 82 0;
#X connect 114 0 83 0;
#X connect 115 0 84 0;
#X connect 116 0 85 0;
#X connect 117 0 86 0;
#X connect 118 0 87 0;
#X connect 119 0 88 0;
#X connect 120 0 89 0;
#X connect 121 0 90 0;
#X connect 122 0 91 0;
#X connect 123 0 92 0;
#X connect 124 0 93 0;
#X connect 125 0 94 0;
#X connect 126 0 95 0;
#X connect 127 0 96 0;
#X connect 128 0 97 0;
#X connect 129 0 98 0;
#X connect 130 0 99 0;
#X connect 131 0 100 0;
#X connect 132 0 101 0;
#X connect 133 0 102 0;
#X connect 134 0 103 0;
#X connect 135 0 104 0;
#X connect 136 0 105 0;
#X connect 137 0 106 0;
#X restore 528 19 pd paramsparams;
#X obj 223 680 sequence, f 66;
#X text 80 316 "control" notes come here;
#X msg 12 501 play \$1;
#X obj 95 474 r \$0-rec-s;
#X msg 95 501 record \$1;
#X obj 301 757 noteout;
#X obj 174 473 r \$0-append-s;
#X obj 595 388 notein;
#X obj 595 410 pack f f;
#X obj 595 432 route 0 1 2 3 4 5 6 7 8;
#X obj 174 501 t b b;
#X obj 380 885 unpack f f;
#X obj 400 929 makefilename \$0-step%d-r;
#X obj 400 907 + 1;
#X obj 380 951 s;
#X obj 399 809 spigot;
#X obj 432 787 r \$0-append-s;
#X msg 399 831 0;
#X obj 399 853 s \$0-append-s;
#X msg 174 529 append;
#X obj 272 472 r \$0-pop-s;
#X obj 272 494 t b;
#X msg 272 516 pop;
#X obj 503 809 spigot;
#X msg 503 831 0;
#X obj 536 787 r \$0-pop-s;
#X obj 503 853 s \$0-pop-s;
#N canvas 604 169 650 300 stepfaders 0;
#X obj 17 12 stepfader \$0-step1-s 0;
#X obj 24 238 outlet;
#X obj 17 34 stepfader \$0-step2-s 1;
#X obj 17 56 stepfader \$0-step3-s 2;
#X obj 17 78 stepfader \$0-step4-s 3;
#X obj 17 100 stepfader \$0-step5-s 4;
#X obj 17 122 stepfader \$0-step6-s 5;
#X obj 17 144 stepfader \$0-step7-s 6;
#X obj 17 166 stepfader \$0-step8-s 7;
#X obj 163 12 stepfader \$0-step9-s 8;
#X obj 163 34 stepfader \$0-step10-s 9;
#X obj 163 56 stepfader \$0-step11-s 10;
#X obj 163 78 stepfader \$0-step12-s 11;
#X obj 163 100 stepfader \$0-step13-s 12;
#X obj 163 122 stepfader \$0-step14-s 13;
#X obj 163 144 stepfader \$0-step15-s 14;
#X obj 163 166 stepfader \$0-step16-s 15;
#X obj 319 12 stepfader \$0-step17-s 16;
#X obj 319 34 stepfader \$0-step18-s 17;
#X obj 319 56 stepfader \$0-step19-s 18;
#X obj 319 78 stepfader \$0-step20-s 19;
#X obj 319 100 stepfader \$0-step21-s 20;
#X obj 319 122 stepfader \$0-step22-s 21;
#X obj 319 144 stepfader \$0-step23-s 22;
#X obj 319 166 stepfader \$0-step24-s 23;
#X obj 477 12 stepfader \$0-step25-s 24;
#X obj 477 34 stepfader \$0-step26-s 25;
#X obj 477 56 stepfader \$0-step27-s 26;
#X obj 477 78 stepfader \$0-step28-s 27;
#X obj 477 100 stepfader \$0-step29-s 28;
#X obj 477 122 stepfader \$0-step30-s 29;
#X obj 477 144 stepfader \$0-step31-s 30;
#X obj 477 166 stepfader \$0-step32-s 31;
#X connect 0 0 1 0;
#X connect 2 0 1 0;
#X connect 3 0 1 0;
#X connect 4 0 1 0;
#X connect 5 0 1 0;
#X connect 6 0 1 0;
#X connect 7 0 1 0;
#X connect 8 0 1 0;
#X connect 9 0 1 0;
#X connect 10 0 1 0;
#X connect 11 0 1 0;
#X connect 12 0 1 0;
#X connect 13 0 1 0;
#X connect 14 0 1 0;
#X connect 15 0 1 0;
#X connect 16 0 1 0;
#X connect 17 0 1 0;
#X connect 18 0 1 0;
#X connect 19 0 1 0;
#X connect 20 0 1 0;
#X connect 21 0 1 0;
#X connect 22 0 1 0;
#X connect 23 0 1 0;
#X connect 24 0 1 0;
#X connect 25 0 1 0;
#X connect 26 0 1 0;
#X connect 27 0 1 0;
#X connect 28 0 1 0;
#X connect 29 0 1 0;
#X connect 30 0 1 0;
#X connect 31 0 1 0;
#X connect 32 0 1 0;
#X restore 438 635 pd stepfaders;
#X obj 543 635 r \$0-gatetime-r-s;
#X obj 660 635 r \$0-gatescale-r-s;
#X text 651 410 "regular" notes here;
#X obj 522 473 r \$0-gates-s;
#X msg 522 495 gates \$1;
#X obj 427 473 r \$0-reset-s;
#X msg 427 495 reset;
#X obj 346 474 r \$0-rest-s;
#X obj 346 496 t b;
#X obj 601 811 spigot;
#X msg 601 833 0;
#X obj 634 789 r \$0-rest-s;
#X obj 601 855 s \$0-rest-s;
#X obj 380 757 t l b b b;
#X msg 346 518 rest;
#X obj 27 578 tgl 15 0 empty empty empty 17 7 0 10 -262144 -1 -1 0
1;
#X obj 27 598 metro 500;
#X msg 350 917 set \$1;
#X connect 15 0 26 0;
#X connect 15 1 26 1;
#X connect 16 0 25 0;
#X connect 24 0 79 0;
#X connect 25 0 17 0;
#X connect 25 1 18 0;
#X connect 25 2 19 0;
#X connect 25 3 20 0;
#X connect 25 4 21 0;
#X connect 25 5 22 0;
#X connect 25 6 23 0;
#X connect 25 7 24 0;
#X connect 26 0 16 0;
#X connect 26 1 16 1;
#X connect 27 0 81 0;
#X connect 27 0 122 0;
#X connect 69 0 71 0;
#X connect 70 0 69 0;
#X connect 71 0 70 0;
#X connect 73 0 75 0;
#X connect 74 0 73 0;
#X connect 75 0 74 0;
#X connect 79 0 35 0;
#X connect 79 1 84 0;
#X connect 79 2 120 0;
#X connect 81 0 79 0;
#X connect 82 0 83 0;
#X connect 83 0 79 0;
#X connect 85 0 89 0;
#X connect 86 0 87 0;
#X connect 86 1 87 1;
#X connect 87 0 88 0;
#X connect 88 9 79 1;
#X connect 89 0 98 0;
#X connect 90 0 124 0;
#X connect 90 1 92 0;
#X connect 91 0 93 1;
#X connect 92 0 91 0;
#X connect 94 0 96 0;
#X connect 95 0 94 1;
#X connect 96 0 97 0;
#X connect 98 0 79 0;
#X connect 99 0 100 0;
#X connect 100 0 101 0;
#X connect 101 0 79 0;
#X connect 102 0 103 0;
#X connect 103 0 105 0;
#X connect 104 0 102 1;
#X connect 106 0 79 2;
#X connect 107 0 79 3;
#X connect 108 0 79 4;
#X connect 110 0 111 0;
#X connect 111 0 79 0;
#X connect 112 0 113 0;
#X connect 113 0 79 0;
#X connect 114 0 115 0;
#X connect 115 0 121 0;
#X connect 116 0 117 0;
#X connect 117 0 119 0;
#X connect 118 0 116 1;
#X connect 120 0 90 0;
#X connect 120 1 94 0;
#X connect 120 2 102 0;
#X connect 120 3 116 0;
#X connect 121 0 79 0;
#X connect 122 0 123 0;
#X connect 123 0 24 0;
#X connect 124 0 93 0;
#X coords 0 -1 1 1 496 270 1 10 10;
