#N canvas 11 26 1351 826 10;
#X obj 14 15 inlet clock;
#X obj 13 263 bng 15 250 50 0 empty empty empty 17 7 0 10 -262144 -1
-1;
#N canvas 893 214 659 689 data 0;
#N canvas 0 22 450 300 (subpatch) 0;
#X array \$0-notes1 32 float 2 black black;
#X coords 0 127 32 0 200 140 1;
#X restore 12 -478 graph;
#N canvas 0 22 450 300 (subpatch) 0;
#X array \$0-notes2 32 float 2 black black;
#X coords 0 127 32 0 200 140 1;
#X restore 12 -319 graph;
#N canvas 0 22 450 300 (subpatch) 0;
#X array \$0-notes3 32 float 2 black black;
#X coords 0 127 32 0 200 140 1;
#X restore 12 -161 graph;
#N canvas 0 22 450 300 (subpatch) 0;
#X array \$0-notes4 32 float 2 black black;
#X coords 0 127 32 0 200 140 1;
#X restore 12 -2 graph;
#N canvas 0 22 450 300 (subpatch) 0;
#X array \$0-notes5 32 float 2 black black;
#X coords 0 127 32 0 200 140 1;
#X restore 225 -478 graph;
#N canvas 0 22 450 300 (subpatch) 0;
#X array \$0-notes6 32 float 2 black black;
#X coords 0 127 32 0 200 140 1;
#X restore 225 -319 graph;
#N canvas 0 22 450 300 (subpatch) 0;
#X array \$0-notes7 32 float 2 black black;
#X coords 0 127 32 0 200 140 1;
#X restore 225 -161 graph;
#N canvas 0 22 450 300 (subpatch) 0;
#X array \$0-notes8 32 float 2 black black;
#X coords 0 127 32 0 200 140 1;
#X restore 225 -2 graph;
#N canvas 0 22 450 300 (subpatch) 0;
#X array \$0-velocities 32 float 2 black black;
#X coords 0 127 32 0 200 140 1;
#X restore 440 -478 graph;
#N canvas 0 22 450 300 (subpatch) 0;
#X array \$0-gates 32 float 2 black black;
#X coords 0 127 32 0 200 140 1;
#X restore 440 -319 graph;
#X restore 1139 662 pd data;
#X obj 51 285 + 1;
#X obj 13 285 f 0;
#X obj 13 416 + 0;
#X floatatom 13 458 5 0 0 0 - - -, f 5;
#X obj 13 437 i;
#X obj 13 478 moses 32;
#X floatatom 13 530 5 0 0 1 - - -, f 5;
#X obj 57 499 - 32;
#X obj 13 803 outlet step_indicator;
#X obj 52 308 r \$0-seq_length;
#X obj 28 395 r \$0-seq_start;
#X obj 153 803 outlet notes;
#X obj 116 15 inlet notes;
#N canvas 645 277 534 617 read_notes_at_step 0;
#X obj 21 21 inlet step;
#X obj 131 449 outlet notes;
#X obj 54 80 tabread \$0-velocities;
#X obj 54 102 sel 0;
#X obj 131 427 pack f f;
#X obj 21 146 spigot;
#X msg 54 124 0;
#X obj 21 168 t f f f f f f f f, f 65;
#X obj 408 195 tabread \$0-notes1;
#X obj 352 218 tabread \$0-notes2;
#X obj 297 195 tabread \$0-notes3;
#X obj 242 218 tabread \$0-notes4;
#X obj 186 195 tabread \$0-notes5;
#X obj 131 218 tabread \$0-notes6;
#X obj 76 195 tabread \$0-notes7;
#X obj 21 218 tabread \$0-notes8;
#X obj 104 355 sel 0;
#X obj 206 299 t f b;
#X obj 260 299 r \$0-gate-time;
#X obj 233 331 f 250;
#X obj 194 40 tabread \$0-gates;
#X floatatom 194 62 5 0 0 0 - - -, f 5;
#X obj 194 83 / 127;
#X floatatom 194 105 5 0 0 0 - - -, f 5;
#X obj 233 353 * 1;
#X floatatom 233 375 5 0 0 0 - - -, f 5;
#X obj 269 92 r \$0-gate-scaler;
#X obj 131 405 makenote 64 250;
#X obj 194 126 * 20;
#X obj 383 23 inlet transpose;
#X obj 131 381 + 0;
#X obj 383 245 unpack f f;
#X floatatom 383 326 5 0 0 0 - - -, f 5;
#X obj 383 272 - 64;
#X obj 383 299 * 1;
#X obj 440 272 > 0;
#X obj 21 54 t f f f;
#X connect 0 0 36 0;
#X connect 2 0 3 0;
#X connect 3 0 6 0;
#X connect 3 1 5 1;
#X connect 3 1 17 0;
#X connect 4 0 1 0;
#X connect 5 0 7 0;
#X connect 6 0 5 1;
#X connect 7 0 15 0;
#X connect 7 1 14 0;
#X connect 7 2 13 0;
#X connect 7 3 12 0;
#X connect 7 4 11 0;
#X connect 7 5 10 0;
#X connect 7 6 9 0;
#X connect 7 7 8 0;
#X connect 8 0 16 0;
#X connect 9 0 16 0;
#X connect 10 0 16 0;
#X connect 11 0 16 0;
#X connect 12 0 16 0;
#X connect 13 0 16 0;
#X connect 14 0 16 0;
#X connect 15 0 16 0;
#X connect 16 1 30 0;
#X connect 17 0 27 1;
#X connect 17 1 19 0;
#X connect 18 0 19 1;
#X connect 19 0 24 0;
#X connect 20 0 21 0;
#X connect 21 0 22 0;
#X connect 22 0 23 0;
#X connect 23 0 28 0;
#X connect 24 0 25 0;
#X connect 25 0 27 2;
#X connect 26 0 28 1;
#X connect 27 0 4 0;
#X connect 27 1 4 1;
#X connect 28 0 24 1;
#X connect 29 0 31 0;
#X connect 30 0 27 0;
#X connect 31 0 33 0;
#X connect 31 1 35 0;
#X connect 32 0 30 1;
#X connect 33 0 34 0;
#X connect 34 0 32 0;
#X connect 35 0 34 1;
#X connect 36 0 5 0;
#X connect 36 1 2 0;
#X connect 36 2 20 0;
#X restore 23 732 pd read_notes_at_step;
#X obj 197 243 poly 8;
#X obj 197 265 pack f f f;
#X obj 197 287 route 1 2 3 4 5 6 7 8, f 190;
#X obj 197 319 unpack f f;
#X obj 214 345 sel 0;
#X obj 182 429 f;
#X obj 182 454 tabwrite \$0-notes1;
#X obj 214 366 s \$0-noteoff;
#X obj 182 387 r \$0-write_step;
#X obj 207 408 r \$0-clear_buffer;
#X obj 208 429 r \$0-step_index;
#X obj 339 319 unpack f f;
#X obj 349 345 sel 0;
#X obj 324 429 f;
#X obj 349 366 s \$0-noteoff;
#X obj 324 387 r \$0-write_step;
#X obj 349 408 r \$0-clear_buffer;
#X obj 350 429 r \$0-step_index;
#X obj 481 319 unpack f f;
#X obj 491 345 sel 0;
#X obj 466 429 f;
#X obj 491 366 s \$0-noteoff;
#X obj 466 387 r \$0-write_step;
#X obj 491 408 r \$0-clear_buffer;
#X obj 492 429 r \$0-step_index;
#X obj 623 319 unpack f f;
#X obj 633 345 sel 0;
#X obj 608 429 f;
#X obj 633 366 s \$0-noteoff;
#X obj 608 387 r \$0-write_step;
#X obj 633 408 r \$0-clear_buffer;
#X obj 634 429 r \$0-step_index;
#X obj 765 319 unpack f f;
#X obj 775 345 sel 0;
#X obj 750 429 f;
#X obj 775 366 s \$0-noteoff;
#X obj 750 387 r \$0-write_step;
#X obj 775 408 r \$0-clear_buffer;
#X obj 776 429 r \$0-step_index;
#X obj 907 319 unpack f f;
#X obj 917 345 sel 0;
#X obj 892 429 f;
#X obj 917 366 s \$0-noteoff;
#X obj 892 387 r \$0-write_step;
#X obj 917 408 r \$0-clear_buffer;
#X obj 918 429 r \$0-step_index;
#X obj 1049 319 unpack f f;
#X obj 1059 345 sel 0;
#X obj 1034 429 f;
#X obj 1059 366 s \$0-noteoff;
#X obj 1034 387 r \$0-write_step;
#X obj 1059 408 r \$0-clear_buffer;
#X obj 1060 429 r \$0-step_index;
#X obj 1191 319 unpack f f;
#X obj 1201 345 sel 0;
#X obj 1176 429 f;
#X obj 1201 366 s \$0-noteoff;
#X obj 1176 387 r \$0-write_step;
#X obj 1201 408 r \$0-clear_buffer;
#X obj 1202 429 r \$0-step_index;
#X obj 1176 454 tabwrite \$0-notes8;
#X obj 1034 454 tabwrite \$0-notes7;
#X obj 892 454 tabwrite \$0-notes6;
#X obj 750 454 tabwrite \$0-notes5;
#X obj 608 454 tabwrite \$0-notes4;
#X obj 466 454 tabwrite \$0-notes3;
#X obj 324 454 tabwrite \$0-notes2;
#X obj 166 507 r \$0-noteoff;
#X msg 207 216 clear;
#X obj 207 194 r \$0-clear_poly;
#X obj 1044 663 bng 15 250 50 0 empty empty clear/reset 17 7 0 10 -262144
-1 -1;
#X obj 239 803 outlet velocities;
#X obj 354 783 f 0;
#X obj 369 763 r \$0-play-pause;
#X obj 354 803 outlet play_pause;
#X obj 472 783 f 0;
#X obj 472 803 outlet record;
#X obj 487 763 r \$0-record;
#X obj 13 240 spigot;
#X obj 46 219 r \$0-play-pause;
#X obj 472 724 r \$0-select-bang;
#X obj 1220 67 loadbang;
#X obj 1220 111 s \$0-seq_length;
#X obj 387 502 r \$0-pop;
#X obj 402 523 r \$0-seq_length;
#X obj 387 659 - 1;
#X obj 387 572 t f b f, f 28;
#X obj 406 628 tabwrite \$0-velocities;
#X msg 469 593 0;
#X obj 387 701 s \$0-seq_length;
#X obj 387 551 f 0;
#X msg 1044 685 const 0;
#X obj 1121 739 s \$0-notes1;
#X obj 1121 719 s \$0-velocities;
#X obj 1121 761 s \$0-notes2;
#X obj 1121 783 s \$0-notes3;
#X obj 1121 805 s \$0-notes4;
#X obj 1221 719 s \$0-notes5;
#X obj 1221 739 s \$0-notes6;
#X obj 1221 761 s \$0-notes7;
#X obj 1221 783 s \$0-notes8;
#X obj 552 593 - 1;
#X obj 21 550 s \$0-current-step;
#X floatatom 166 571 5 0 0 0 - - -, f 5;
#X obj 166 549 r \$0-step_index;
#X obj 486 660 pack f f;
#X obj 13 308 t f f;
#X floatatom 13 374 5 0 0 0 - - -, f 5;
#X msg 83 372 0;
#X obj 52 330 - 1;
#X obj 13 352 moses 0;
#X obj 83 353 bng 15 250 50 0 empty \$0-reset empty 17 7 0 10 -262144
-1 -1;
#X obj 310 15 inlet vels;
#X obj 310 264 tabwrite \$0-velocities;
#X obj 310 145 unpack f f;
#X obj 14 40 route select play record stop append pop rest gates reset
, f 178;
#X obj 1079 67 s \$0-clock;
#X obj 14 83 s \$0-select-bang;
#X obj 250 62 tgl 15 0 empty empty record 17 7 0 10 -262144 -1 -1 1
1;
#X obj 132 62 tgl 15 0 empty empty play/pause 17 7 0 10 -262144 -1
-1 0 1;
#X obj 250 83 s \$0-record;
#X obj 132 83 s \$0-play-pause;
#X obj 487 125 s \$0-append;
#X msg 369 83 0;
#X obj 605 125 s \$0-pop;
#X obj 605 62 bng 15 250 50 0 empty empty pop 17 7 0 10 -262144 -1
-1;
#X obj 369 62 bng 15 250 50 0 empty empty stop 17 7 0 10 -262144 -1
-1;
#X obj 369 104 s \$0-current-step;
#X obj 487 104 spigot;
#X obj 520 83 r \$0-record;
#X obj 605 104 spigot;
#X obj 638 83 r \$0-record;
#X obj 960 62 bng 15 250 50 0 empty empty reset 17 7 0 10 -262144 -1
-1;
#X obj 960 83 s \$0-reset;
#X obj 842 62 tgl 15 0 empty empty gates 17 7 0 10 -262144 -1 -1 0
1;
#X obj 842 167 s \$0-gates;
#X obj 724 62 bng 15 250 50 0 empty empty rest 17 7 0 10 -262144 -1
-1;
#X obj 14 62 bng 15 250 50 0 empty empty empty 17 7 0 10 -262144 -1
-1;
#X obj 13 198 r \$0-clock;
#X obj 82 330 r \$0-reset;
#X obj 1105 15 inlet gate_time;
#X obj 1105 135 s \$0-gate-time;
#X msg 1114 111 250;
#X obj 1222 805 s \$0-gates;
#X obj 577 783 f 0;
#X obj 592 763 r \$0-gates;
#X obj 577 803 outlet gates;
#X obj 864 103 change;
#X obj 864 125 bng 15 250 50 0 empty empty empty 17 7 0 10 -262144
-1 -1;
#X obj 864 145 s \$0-select-bang;
#X obj 456 264 tabwrite \$0-gates;
#X obj 395 195 r \$0-gates;
#X obj 310 242 spigot 1;
#X obj 456 242 spigot 0;
#X obj 1213 16 inlet gate_scale;
#X obj 1213 135 s \$0-gate-scaler;
#X msg 1220 89 0;
#X obj 387 679 max 0;
#X msg 1185 111 1;
#X obj 310 171 swap, f 25;
#X obj 355 220 == 0;
#N canvas 444 115 632 683 route.notes 1;
#X obj 11 8 inlet notes;
#X obj 116 400 outlet bypass;
#X obj 215 400 outlet transpose;
#X obj 332 400 outlet record;
#X obj 426 399 outlet rest;
#X obj 11 42 route rest;
#X obj 196 128 r \$0-record;
#X obj 433 128 r \$0-play-pause;
#X obj 11 154 spigot 0;
#X msg 11 128 1 0 0;
#X msg 181 231 bypass;
#X msg 231 231 transpose;
#X msg 304 232 record;
#X obj 117 294 list prepend;
#X obj 418 154 f 0;
#X obj 181 154 f 0;
#X obj 117 78 t l b b;
#X obj 117 316 list trim;
#X obj 181 204 sel 0 1 2 3;
#X msg 360 231 record_bypass;
#X obj 116 339 route bypass transpose record record_bypass;
#X obj 181 177 expr if($f1 == 1 \, if($f2 == 1 \, 2 \, 3) \, if($f2
== 1 \, 1 \, 0));
#X connect 0 0 5 0;
#X connect 5 0 9 0;
#X connect 5 1 16 0;
#X connect 6 0 8 1;
#X connect 6 0 15 1;
#X connect 7 0 14 1;
#X connect 8 0 4 0;
#X connect 9 0 8 0;
#X connect 10 0 13 1;
#X connect 11 0 13 1;
#X connect 12 0 13 1;
#X connect 13 0 17 0;
#X connect 14 0 21 1;
#X connect 15 0 21 0;
#X connect 16 0 13 0;
#X connect 16 1 15 0;
#X connect 16 2 14 0;
#X connect 17 0 20 0;
#X connect 18 0 10 0;
#X connect 18 1 11 0;
#X connect 18 2 12 0;
#X connect 18 3 19 0;
#X connect 19 0 13 1;
#X connect 20 0 1 0;
#X connect 20 1 2 0;
#X connect 20 2 3 0;
#X connect 20 3 3 0;
#X connect 20 3 1 0;
#X connect 21 0 18 0;
#X restore 116 129 pd route.notes, f 20;
#X obj 146 712 r \$0-transpose;
#X obj 153 782 r \$0-bypass;
#X obj 116 151 s \$0-bypass;
#X obj 155 173 s \$0-transpose;
#X obj 724 104 s \$0-sendrest;
#X obj 126 107 r \$0-sendrest;
#X obj 487 63 tgl 15 0 empty empty append 17 7 0 10 -262144 -1 -1 0
1;
#N canvas 979 605 450 323 on.select.output.gates.vels 0;
#X obj 11 16 inlet select bang;
#X obj 109 110 until;
#X msg 109 88 32;
#X obj 109 132 f 0;
#X obj 141 131 + 1;
#X obj 26 202 tabread \$0-velocities;
#X obj 109 153 t f f;
#X msg 149 88 0;
#X obj 109 67 t b b;
#X obj 109 236 pack f f;
#X obj 26 180 spigot 1;
#X obj 161 202 tabread \$0-gates;
#X obj 161 181 spigot 0;
#X obj 206 154 r \$0-gates;
#X obj 71 153 == 0;
#X obj 109 258 outlet gates-vels;
#X connect 0 0 8 0;
#X connect 1 0 3 0;
#X connect 2 0 1 0;
#X connect 3 0 4 0;
#X connect 3 0 6 0;
#X connect 4 0 3 1;
#X connect 5 0 9 0;
#X connect 6 0 10 0;
#X connect 6 0 12 0;
#X connect 6 1 9 1;
#X connect 7 0 3 1;
#X connect 8 0 2 0;
#X connect 8 1 7 0;
#X connect 9 0 15 0;
#X connect 10 0 5 0;
#X connect 11 0 9 0;
#X connect 12 0 11 0;
#X connect 13 0 12 1;
#X connect 13 0 14 0;
#X connect 14 0 10 1;
#X restore 175 763 pd on.select.output.gates.vels;
#N canvas 606 197 864 669 write.note 0;
#X obj 14 17 inlet noteoff;
#X obj 14 62 t b b b b;
#X msg 14 148 0;
#X obj 65 83 s \$0-clear_poly;
#X obj 31 127 s \$0-write_step;
#X obj 14 169 s \$0-clear_buffer;
#X obj 48 105 s \$0-find-write-index;
#X obj 228 49 bng 15 250 50 0 empty empty empty 17 7 0 10 -262144 -1
-1;
#X obj 228 22 r \$0-find-write-index;
#X obj 228 123 spigot 0;
#X obj 360 81 r \$0-play-pause;
#X obj 315 122 spigot 1;
#X obj 360 102 == 0;
#X obj 228 81 t b b;
#X obj 228 144 t b b;
#X obj 363 144 r \$0-append;
#X obj 228 414 s \$0-step_index;
#X floatatom 228 388 5 0 0 0 - - -, f 5;
#X obj 228 301 f 0;
#X obj 243 272 r \$0-current-step;
#X obj 390 272 r \$0-seq_length;
#X obj 375 382 + 1;
#X obj 375 426 s \$0-seq_length;
#X obj 375 404 min 32;
#X floatatom 405 301 5 0 0 0 - - -, f 5;
#X obj 375 301 f 0;
#X text 398 102 if not playing (default) \, append;
#X text 170 240 if playing & append \, append;
#X text 372 173 if playing & no append \, replace;
#X obj 363 198 == 0;
#X obj 318 218 spigot 1;
#X obj 228 218 spigot 0;
#X obj 690 15 inlet velocity;
#X obj 663 149 f;
#X obj 663 174 tabwrite \$0-velocities;
#X obj 640 74 r \$0-write_step;
#X obj 685 128 r \$0-clear_buffer;
#X obj 689 149 r \$0-step_index;
#X obj 636 217 tabwrite \$0-gates;
#X obj 636 196 f 64;
#X obj 680 260 pack f f;
#X obj 600 260 pack f f;
#X obj 640 96 t b b;
#X obj 599 325 spigot 1;
#X obj 681 324 spigot 0;
#X obj 725 289 r \$0-gates;
#X obj 644 297 == 0;
#X obj 614 377 outlet vel-gate;
#X obj 375 326 t f f;
#X connect 0 0 1 0;
#X connect 1 0 2 0;
#X connect 1 1 4 0;
#X connect 1 2 6 0;
#X connect 1 3 3 0;
#X connect 2 0 5 0;
#X connect 7 0 13 0;
#X connect 8 0 7 0;
#X connect 9 0 14 0;
#X connect 10 0 9 1;
#X connect 10 0 12 0;
#X connect 11 0 25 0;
#X connect 12 0 11 1;
#X connect 13 0 9 0;
#X connect 13 1 11 0;
#X connect 14 0 31 0;
#X connect 14 1 30 0;
#X connect 15 0 29 0;
#X connect 15 0 31 1;
#X connect 17 0 16 0;
#X connect 18 0 17 0;
#X connect 19 0 18 1;
#X connect 20 0 24 0;
#X connect 20 0 25 1;
#X connect 21 0 23 0;
#X connect 23 0 22 0;
#X connect 25 0 48 0;
#X connect 29 0 30 1;
#X connect 30 0 18 0;
#X connect 31 0 25 0;
#X connect 32 0 33 1;
#X connect 33 0 34 0;
#X connect 33 0 40 0;
#X connect 35 0 42 0;
#X connect 36 0 33 1;
#X connect 37 0 34 1;
#X connect 37 0 38 1;
#X connect 37 0 40 1;
#X connect 37 0 41 1;
#X connect 39 0 38 0;
#X connect 39 0 41 0;
#X connect 40 0 43 0;
#X connect 41 0 44 0;
#X connect 42 0 39 0;
#X connect 42 1 33 0;
#X connect 43 0 47 0;
#X connect 44 0 47 0;
#X connect 45 0 44 1;
#X connect 45 0 46 0;
#X connect 46 0 43 1;
#X connect 48 0 17 0;
#X connect 48 1 21 0;
#X restore 166 528 pd write.note;
#X obj 547 628 tabwrite \$0-gates;
#X msg 724 83 rest;
#X connect 0 0 132 0;
#X connect 1 0 4 0;
#X connect 3 0 4 1;
#X connect 4 0 3 0;
#X connect 4 0 123 0;
#X connect 5 0 7 0;
#X connect 6 0 8 0;
#X connect 7 0 6 0;
#X connect 8 0 9 0;
#X connect 8 1 10 0;
#X connect 9 0 11 0;
#X connect 9 0 16 0;
#X connect 9 0 119 0;
#X connect 10 0 9 0;
#X connect 12 0 126 0;
#X connect 13 0 5 1;
#X connect 15 0 178 0;
#X connect 16 0 14 0;
#X connect 17 0 18 0;
#X connect 17 1 18 1;
#X connect 17 2 18 2;
#X connect 18 0 19 0;
#X connect 19 0 20 0;
#X connect 19 1 28 0;
#X connect 19 2 35 0;
#X connect 19 3 42 0;
#X connect 19 4 49 0;
#X connect 19 5 56 0;
#X connect 19 6 63 0;
#X connect 19 7 70 0;
#X connect 20 0 22 1;
#X connect 20 1 21 0;
#X connect 21 0 24 0;
#X connect 21 1 187 1;
#X connect 22 0 23 0;
#X connect 25 0 22 0;
#X connect 26 0 22 1;
#X connect 27 0 23 1;
#X connect 28 0 30 1;
#X connect 28 1 29 0;
#X connect 29 0 31 0;
#X connect 30 0 83 0;
#X connect 32 0 30 0;
#X connect 33 0 30 1;
#X connect 34 0 83 1;
#X connect 35 0 37 1;
#X connect 35 1 36 0;
#X connect 36 0 38 0;
#X connect 37 0 82 0;
#X connect 39 0 37 0;
#X connect 40 0 37 1;
#X connect 41 0 82 1;
#X connect 42 0 44 1;
#X connect 42 1 43 0;
#X connect 43 0 45 0;
#X connect 44 0 81 0;
#X connect 46 0 44 0;
#X connect 47 0 44 1;
#X connect 48 0 81 1;
#X connect 49 0 51 1;
#X connect 49 1 50 0;
#X connect 50 0 52 0;
#X connect 51 0 80 0;
#X connect 53 0 51 0;
#X connect 54 0 51 1;
#X connect 55 0 80 1;
#X connect 56 0 58 1;
#X connect 56 1 57 0;
#X connect 57 0 59 0;
#X connect 58 0 79 0;
#X connect 60 0 58 0;
#X connect 61 0 58 1;
#X connect 62 0 79 1;
#X connect 63 0 65 1;
#X connect 63 1 64 0;
#X connect 64 0 66 0;
#X connect 65 0 78 0;
#X connect 67 0 65 0;
#X connect 68 0 65 1;
#X connect 69 0 78 1;
#X connect 70 0 72 1;
#X connect 70 1 71 0;
#X connect 71 0 73 0;
#X connect 72 0 77 0;
#X connect 74 0 72 0;
#X connect 75 0 72 1;
#X connect 76 0 77 1;
#X connect 84 0 187 0;
#X connect 85 0 17 0;
#X connect 86 0 85 0;
#X connect 87 0 108 0;
#X connect 89 0 91 0;
#X connect 90 0 89 1;
#X connect 92 0 93 0;
#X connect 94 0 92 1;
#X connect 95 0 1 0;
#X connect 96 0 95 1;
#X connect 97 0 186 0;
#X connect 97 0 89 0;
#X connect 97 0 161 0;
#X connect 97 0 92 0;
#X connect 98 0 173 0;
#X connect 98 0 159 0;
#X connect 98 0 175 0;
#X connect 100 0 107 0;
#X connect 101 0 107 1;
#X connect 102 0 174 0;
#X connect 103 0 102 0;
#X connect 103 1 105 0;
#X connect 103 2 118 0;
#X connect 105 0 104 0;
#X connect 105 0 122 0;
#X connect 105 0 188 0;
#X connect 107 0 103 0;
#X connect 108 0 109 0;
#X connect 108 0 117 0;
#X connect 108 0 116 0;
#X connect 108 0 115 0;
#X connect 108 0 114 0;
#X connect 108 0 113 0;
#X connect 108 0 112 0;
#X connect 108 0 111 0;
#X connect 108 0 110 0;
#X connect 108 0 160 0;
#X connect 118 0 104 1;
#X connect 118 0 122 1;
#X connect 118 0 188 1;
#X connect 121 0 120 0;
#X connect 122 0 88 0;
#X connect 123 0 127 0;
#X connect 123 1 124 0;
#X connect 124 0 5 0;
#X connect 125 0 4 1;
#X connect 126 0 127 1;
#X connect 127 1 128 0;
#X connect 128 0 125 0;
#X connect 129 0 131 0;
#X connect 131 0 176 0;
#X connect 131 1 176 1;
#X connect 132 0 154 0;
#X connect 132 1 136 0;
#X connect 132 2 135 0;
#X connect 132 3 143 0;
#X connect 132 4 185 0;
#X connect 132 5 142 0;
#X connect 132 6 153 0;
#X connect 132 7 151 0;
#X connect 132 8 149 0;
#X connect 132 9 133 0;
#X connect 135 0 137 0;
#X connect 136 0 138 0;
#X connect 140 0 144 0;
#X connect 140 0 136 0;
#X connect 142 0 147 0;
#X connect 143 0 140 0;
#X connect 143 0 149 0;
#X connect 145 0 139 0;
#X connect 146 0 145 1;
#X connect 147 0 141 0;
#X connect 148 0 147 1;
#X connect 149 0 150 0;
#X connect 151 0 152 0;
#X connect 151 0 164 0;
#X connect 153 0 189 0;
#X connect 154 0 134 0;
#X connect 155 0 95 0;
#X connect 156 0 128 0;
#X connect 157 0 158 0;
#X connect 159 0 158 0;
#X connect 161 0 163 0;
#X connect 162 0 161 1;
#X connect 164 0 165 0;
#X connect 165 0 166 0;
#X connect 168 0 177 0;
#X connect 168 0 170 1;
#X connect 169 0 130 0;
#X connect 170 0 167 0;
#X connect 171 0 172 0;
#X connect 173 0 99 0;
#X connect 174 0 106 0;
#X connect 175 0 172 0;
#X connect 176 0 169 0;
#X connect 176 0 170 0;
#X connect 176 1 167 1;
#X connect 176 1 130 1;
#X connect 177 0 169 1;
#X connect 178 0 181 0;
#X connect 178 1 182 0;
#X connect 178 2 17 0;
#X connect 178 3 19 0;
#X connect 179 0 16 1;
#X connect 180 0 14 0;
#X connect 184 0 178 0;
#X connect 185 0 145 0;
#X connect 186 0 88 0;
#X connect 187 0 88 0;
#X connect 189 0 183 0;
